<?xml version="1.0" encoding="utf-8"?>
<!-- Generator: Adobe Illustrator 21.0.2, SVG Export Plug-In . SVG Version: 6.00 Build 0)  -->
<svg version="1.1" id="Livello_1" xmlns="http://www.w3.org/2000/svg" xmlns:xlink="http://www.w3.org/1999/xlink" x="0px" y="0px"
	 viewBox="0 0 207.1 75.5" style="enable-background:new 0 0 207.1 75.5;" xml:space="preserve">
<style type="text/css">
	.st0{fill-rule:evenodd;clip-rule:evenodd;fill:#FFFFFF;}
	.st1{fill:#FFFFFF;}
	.st2{fill:none;}
</style>
<g>
	<path class="st1" d="M105.6,65.2c-15.1,0-27.4-12.3-27.4-27.4c0-15.1,12.3-27.4,27.4-27.4c9.8,0,18.4,5.1,23.2,12.8l-3,3.3
		c-4-7.1-11.6-11.9-20.3-11.9c-12.8,0-23.2,10.4-23.2,23.2c0,12.8,10.4,23.2,23.2,23.2c8.7,0,16.3-4.8,20.3-11.9l3,3.3
		C124,60,115.4,65.2,105.6,65.2z"/>
	<path class="st1" d="M108.9,45.4v-6.3l13.5-15.1l0.2-0.2c0.9,1.1,1.7,2.3,2.4,3.6l-2.6,2.9v21.6c-1.2,1.5-2.6,2.8-4.2,3.9V35
		L108.9,45.4z"/>
	<path class="st1" d="M100.3,29.2v6l-4.2-4.7v-8l-2.7-3c2.6-1.8,5.6-3,8.9-3.5v4.1c-0.7,0.1-1.3,0.3-2,0.5v4.6h12.4l-3.7,4H100.3z"
		/>
	<path class="st1" d="M107.7,30.5v29.2c-0.7,0.1-1.4,0.1-2.1,0.1c-0.7,0-1.4,0-2.1-0.1V30.5H107.7z"/>
	<path class="st1" d="M93,35v20.7c-1.6-1.1-3-2.4-4.2-3.9V30.3l-2.6-2.9c0.7-1.3,1.5-2.5,2.4-3.6l0.2,0.2l13.6,15.1v6.3L93,35z"/>
	<path class="st1" d="M100.3,45v14.1c-1.5-0.4-2.9-0.9-4.2-1.5V40.3L100.3,45z"/>
	<path class="st1" d="M103.5,24.1v-8.2c0.7-0.1,1.4-0.1,2.1-0.1c0.7,0,1.4,0,2.1,0.1v8.2H103.5z"/>
	<path class="st1" d="M108.9,20.1V16c3.3,0.5,6.3,1.7,8.9,3.5l-2.7,3C113.3,21.3,111.2,20.5,108.9,20.1z"/>
</g>
</svg>
