<?xml version="1.0" encoding="utf-8"?>
<!-- Generator: Adobe Illustrator 21.0.2, SVG Export Plug-In . SVG Version: 6.00 Build 0)  -->
<svg version="1.1" id="Livello_1" xmlns="http://www.w3.org/2000/svg" xmlns:xlink="http://www.w3.org/1999/xlink" x="0px" y="0px"
	 viewBox="0 0 207.1 75.5" style="enable-background:new 0 0 207.1 75.5;" xml:space="preserve">
<style type="text/css">
	.st0{fill-rule:evenodd;clip-rule:evenodd;fill:#FFFFFF;}
	.st1{fill:#FFFFFF;}
	.st2{fill:none;}
	.st3{fill:#FDFDFD;}
</style>
<g>
	<path class="st1" d="M153.5,29.3c-6.5,0-13.1,0-19.6,0c-26.8,0-53.6,0-80.4,0c0,5.6,0,11.3,0,16.9c33.3,0,66.7,0,100,0
		C153.5,40.6,153.5,34.9,153.5,29.3z M153.1,38.3c-0.8,0-1.7,0-2.5,0c-0.1,0-0.2,0-0.2,0.1c0,1,0,2.1,0,3.1c0,0.5,0,1.1,0.1,1.6
		c0.2,0.5,0.5,1,0.9,1.3c-1.4,0-2.7,0-4.1,0c0.4-0.4,0.8-0.8,0.9-1.4c0.2-0.5,0.1-1,0.1-1.5c0-1.1,0-2.1,0-3.2c-1.5,0-3,0-4.5,0
		c-0.1,0-0.2,0-0.2,0.1c0.3,0.2,0.5,0.5,0.6,0.7c0.4,0.7,0.5,1.6,0.6,2.4c0.1,0.6,0.1,1.3,0.5,1.9c0.2,0.3,0.5,0.6,0.8,0.9
		c-0.7,0-1.4,0-2.1,0c-0.3,0-0.6,0-0.7-0.3c-0.3-0.4-0.4-0.9-0.4-1.3c0-0.7,0-1.5-0.3-2.2c-0.3-0.5-0.7-1-1.2-1.2
		c-0.6-0.2-1.2-0.3-1.8-0.3c-0.8,0-1.7,0-2.5,0c0,1,0,2.1,0,3.1c0,0.8,0.4,1.6,1,2.1c-1.3,0-2.6,0-3.9,0l-0.1,0c0,0-0.1,0-0.1,0
		c0.7-0.5,1.1-1.3,1.1-2.2c0-1.3,0-2.6,0-3.9c2.2,0,4.5,0,6.7,0c0.6,0,1.2,0,1.8,0l0.1,0c0,0-0.1-0.1-0.1-0.1
		c-0.3-0.2-0.7-0.4-1.1-0.5c1-0.2,2-0.9,2.5-1.9c0.3-0.8,0.4-1.6,0.1-2.4c-0.2-0.5-0.5-1-1-1.4c-0.5-0.4-1.2-0.7-1.8-0.8
		c-0.8-0.2-1.6-0.1-2.5-0.1c-1.9,0-3.8,0.1-5.7,0.1c0.7,0.5,1.1,1.4,1,2.2c0,1.6,0,3.2,0,4.9c-1.3,0-2.6,0-3.9,0c0-1.6,0-3.2,0-4.9
		c0-0.5,0.1-1.1,0.4-1.5c0.2-0.3,0.4-0.5,0.6-0.7c-1.4,0-2.7,0-4.1,0c0.7,0.5,1.1,1.3,1.1,2.2c0,1.6,0,3.3,0,4.9c0.7,0,1.3,0,2,0
		c0,1,0,2,0,3c-0.1,1.2-0.8,2.4-1.8,3c-0.8,0.5-1.9,0.6-2.8,0.5c-0.6-0.1-1.2-0.3-1.8-0.5c-0.3-0.1-0.7-0.2-1,0
		c-0.2,0.1-0.3,0.3-0.4,0.6c0-1.6,0-3.2,0-4.9c0.1,0.6,0.3,1.3,0.8,1.8c0.5,0.6,1.2,1,2,1.2c0.6,0.1,1.3,0.2,1.9-0.2
		c0.5-0.3,1-0.8,1.1-1.4c0.1-0.3,0-0.6,0-1c0-0.7,0-1.4,0-2.1c-2.8,0-5.5,0-8.3,0c0-1.7,0-3.4,0-5.1c0-0.8,0.4-1.5,1-2
		c-1.4,0-2.7,0-4.1,0c0.6,0.5,1,1.3,1,2.1c0,1.2,0,2.4,0,3.6c0,0.5,0,0.9,0,1.4c0.1,0.1,0.2,0.1,0.3,0.1c0.6,0,1.1,0,1.7,0
		c0,1.1,0,2.3,0,3.4c0,0.5,0,0.9,0.1,1.4c0.1,0.5,0.5,0.9,0.9,1.3c-1.4,0-2.7,0-4.1,0c0.4-0.4,0.8-0.8,0.9-1.4
		c0.2-0.5,0.1-1.1,0.1-1.6c0-1,0-2.1,0-3.1c-0.1-0.1-0.2,0-0.3,0c-1.6,0-3.2,0-4.8,0c0.7-0.2,1.4-0.7,1.9-1.2
		c0.6-0.7,0.9-1.7,0.8-2.7c-0.1-0.9-0.5-1.9-1.3-2.4c-0.7-0.6-1.7-0.9-2.6-0.8c-2.2,0.1-4.5,0.1-6.7,0.1c0.6,0.5,1,1.3,1,2.2
		c0,1.6,0,3.3,0,4.9c2.3,0,4.6,0,6.9,0c-1.2,0.4-2.4,0.6-3.6,0.9c-0.4,0.1-0.9,0.2-1.1,0.6c-0.3,0.4-0.2,0.9-0.2,1.3
		c0,0.8-0.1,1.5,0.2,2.3c0.2,0.4,0.5,0.8,0.8,1c-1.4,0-2.7,0-4.1,0c0.6-0.5,1-1.3,1-2c0-1.3,0-2.7,0-4c-1.5,0-3,0-4.5,0
		c0.6,1.4,1.1,2.8,1.6,4.1c0.3,0.7,0.8,1.4,1.4,1.9c-1.4,0-2.8,0-4.1,0c0.3-0.4,0.6-0.9,0.5-1.4c0-0.4-0.2-0.8-0.6-1
		c-0.3-0.2-0.6-0.2-0.8-0.2c-1.4,0-2.7,0-4.1,0c-0.4,0-0.8,0.1-1.1,0.5c-0.5,0.7-0.3,1.6,0.3,2.1c-1.4,0-2.8,0-4.2,0
		c0.5-0.4,0.9-0.9,1.2-1.5c0.2-0.4,0.4-0.8,0.5-1.2c0.4-1.1,0.9-2.3,1.3-3.4c-1.1,0-2.1,0-3.2,0c-0.2,0-0.4,0-0.7,0
		c-1.3,0.4-2.6,0.6-3.9,0.9c-0.3,0.1-0.6,0.3-0.8,0.6c-0.2,0.4-0.1,0.8-0.2,1.3c0,0.7-0.1,1.4,0.2,2.1c0.2,0.5,0.5,0.9,0.8,1.2
		c-1.3,0-2.7,0-4,0c0.6-0.5,1-1.3,1-2.1c0-1.2,0-2.4,0-3.6c0-0.1,0-0.2-0.1-0.3c0,0-0.1,0-0.1,0c-1.5,0-2.9,0-4.4,0
		c0.5,1.3,1,2.5,1.5,3.8c0.3,0.9,0.9,1.7,1.6,2.3c-1.4,0-2.8,0-4.2,0c0.3-0.3,0.5-0.7,0.5-1.1c0-0.5-0.2-1.1-0.6-1.3
		c-0.2-0.1-0.5-0.2-0.8-0.2c-1.4,0-2.8,0-4.1,0c-0.3,0-0.6,0-0.9,0.2c-0.4,0.3-0.6,0.9-0.5,1.4c0.1,0.4,0.3,0.7,0.5,0.9
		c-1.4,0-2.8,0-4.2,0c0.7-0.6,1.3-1.4,1.6-2.2c0.5-1.3,1-2.5,1.5-3.8c0.8,0,1.6,0,2.3,0c-0.3,0.7-0.5,1.4-0.8,2c1.6,0,3.3,0,4.9,0
		c-0.3-0.7-0.5-1.4-0.8-2c0.8,0,1.6,0,2.3,0c-0.8-2.1-1.7-4.2-2.5-6.3c-0.1-0.3,0-0.6,0.2-0.8c-1.1,0-2.3,0-3.4,0
		c0.1,0.1,0.2,0.2,0.2,0.4c0,0.2,0,0.4-0.1,0.5c-0.8,2.1-1.6,4.1-2.4,6.2c-1.5,0-3,0-4.6,0c0-1.6,0-3.2,0-4.9c0-0.5,0.1-1.1,0.4-1.6
		c0.2-0.3,0.4-0.5,0.6-0.7c-1.3,0-2.6,0-3.9,0c0.6,0.5,1,1.3,1,2.1c0,1.7,0,3.3,0,5c-0.5,0-1,0-1.6,0c0.5,1,1,1.9,1.6,2.9
		c0-1,0-2,0-2.9c0.6,0,1.2,0,1.8,0c0,1.7,0,3.4,0,5.1c0,0.3,0,0.7,0.1,0.9c-1,0-2,0-3,0c0.1-0.2,0.2-0.4,0-0.6c-1-1.8-2-3.7-3-5.5
		c0.8,0,1.7,0,2.5,0c-1.2-2.2-2.3-4.4-3.5-6.5c-0.1-0.1-0.1-0.2-0.1-0.3c0-0.1,0.1-0.2,0.1-0.2c-1.4,0-2.8,0-4.1,0
		c0.6,0.5,1,1.3,1,2c0,1.6,0,3.1,0,4.7c0,0.1,0,0.2,0,0.3c0.6,0.1,1.2,0,1.7,0c0-1.4,0-2.9,0-4.3c0.8,1.4,1.5,2.9,2.3,4.3
		c-0.8,0-1.5,0-2.3,0c0,0,0,0,0,0c0,1.3,0,2.6,0,4c0,0.8,0.4,1.6,1,2.1c-1.3,0-2.6,0-3.8,0c0.6-0.5,1-1.2,1-2c0-1.3,0-2.6,0-4
		c0,0,0,0-0.1-0.1c-0.9,0-1.8,0-2.7,0c0-2.9,0-5.7,0-8.6c33,0,66.1,0,99.1,0C153.1,32.6,153.1,35.5,153.1,38.3z M137,37.4
		c0-1,0-2,0-3c0-0.4,0.1-0.8,0.4-1.1c0.4-0.2,1-0.3,1.5-0.3c0.8,0,1.6,0,2.4,0.1c0.6,0.1,1.1,0.2,1.5,0.7c0.4,0.5,0.4,1.3,0.1,1.9
		c-0.4,0.8-1.3,1.3-2.1,1.5C139.5,37.5,138.3,37.4,137,37.4z M112.6,36.8c-1.2,0.2-2.4,0.5-3.6,0.7c0-1.3,0-2.5,0-3.8
		c0-0.1,0-0.3,0.2-0.4c0.7-0.1,1.4-0.2,2.1-0.3c0.8-0.1,1.7-0.2,2.4,0.2c0.5,0.2,0.9,0.8,1,1.3c0.1,0.6-0.1,1.3-0.6,1.7
		C113.6,36.6,113,36.7,112.6,36.8z M73.6,38.3c0.6-1.4,1.1-2.8,1.6-4.1c0.6,1.4,1.1,2.8,1.6,4.1C75.8,38.3,74.7,38.4,73.6,38.3z"/>
	<path class="st1" d="M83.7,37.9c0,0.1,0,0.3,0,0.4c0,0,0.1,0,0.1,0c2.2,0,4.5,0,6.7,0c0.3,0,0.5-0.2,0.8-0.3c0.7-0.4,1.4-1,1.7-1.7
		c0.4-1,0.4-2.1,0-3.1c-0.5-1-1.5-1.7-2.5-2c-0.7-0.1-1.5-0.1-2.2-0.1c-1.9,0.1-3.7,0.1-5.6,0.1c0.6,0.5,1,1.3,1,2.2
		C83.8,34.9,83.8,36.4,83.7,37.9z M85.9,33.3c0.8-0.2,1.6-0.2,2.4-0.3c0.7-0.1,1.5-0.1,2.2,0.3c1,0.6,1.1,2.1,0.3,2.9
		c-0.3,0.4-0.8,0.5-1.3,0.6c-1.2,0.3-2.5,0.5-3.8,0.7c0-1.3,0-2.5,0-3.8C85.7,33.6,85.7,33.3,85.9,33.3z"/>
	<path class="st1" d="M148.3,33.4c0,1.6,0,3.3,0,4.9c0.7,0,1.3,0,2,0c0-1.7,0-3.3,0-5c0-0.8,0.4-1.6,1-2.1c-1.4,0-2.7,0-4.1,0
		C147.9,31.7,148.3,32.6,148.3,33.4z"/>
	<path class="st1" d="M100.1,31.2c-1.1,0-2.2,0-3.4,0c0.2,0.2,0.3,0.5,0.2,0.8c-0.8,2.1-1.6,4.2-2.5,6.3c0.8,0,1.6,0,2.3,0
		c-0.3,0.7-0.5,1.4-0.8,2c1.6,0,3.3,0,4.9,0c-0.3-0.6-0.5-1.3-0.8-1.9c0,0,0.1-0.1,0.1-0.1c0.7,0,1.5,0,2.2,0
		c-0.8-2.1-1.7-4.2-2.5-6.3C99.8,31.7,99.9,31.5,100.1,31.2z M100,38.4c-1.1,0-2.1,0-3.2,0c0.6-1.4,1.1-2.8,1.6-4.2
		C98.9,35.6,99.5,37,100,38.4L100,38.4z"/>
</g>
</svg>
