<?xml version="1.0" encoding="utf-8"?>
<!-- Generator: Adobe Illustrator 21.0.2, SVG Export Plug-In . SVG Version: 6.00 Build 0)  -->
<svg version="1.1" id="Livello_1" xmlns="http://www.w3.org/2000/svg" xmlns:xlink="http://www.w3.org/1999/xlink" x="0px" y="0px"
	 viewBox="0 0 207.1 75.5" style="enable-background:new 0 0 207.1 75.5;" xml:space="preserve">
<style type="text/css">
	.st0{fill-rule:evenodd;clip-rule:evenodd;fill:#FFFFFF;}
	.st1{fill:#FFFFFF;}
	.st2{fill:none;}
	.st3{fill:#FDFDFD;}
</style>
<g>
	<g>
		<path class="st1" d="M69.4,38l-0.5-4.1l3.2-2.2l-4.2-5.6c-3.2,2.1-6.1,7.5-5.4,10.7C64.6,37.4,69.4,38,69.4,38z"/>
		<path class="st1" d="M62.4,38.4l6.9,1.2l2.8,2.8c0,0-2.1,3.9-3,5.5C65.9,46.7,62.4,42.2,62.4,38.4z"/>
		<path class="st1" d="M73.4,43.6l5.3-1.1l3.5,6.5c0,0-6.1,2-10.1,0.8C72.7,45.8,73.4,43.6,73.4,43.6z"/>
		<polygon class="st1" points="81.4,41 82.1,40.1 87.9,43.1 86.3,46.2 		"/>
		<polygon class="st1" points="83.5,38.4 83.5,35 88.9,32 89.4,40.7 		"/>
		<polygon class="st1" points="81.4,32 82.5,33.6 91.4,28.7 89.4,26.7 		"/>
		<path class="st1" d="M70.1,24.8l3.8,5.3l2.7-1.1l2.7,2.1l5.3-4.1C84.6,27,79.8,20.4,70.1,24.8z"/>
		<path class="st1" d="M78.1,52.6l0.5,2.8c0,0,6-1,9.3-3.4c-0.8-1.4-1.4-2.5-1.4-2.5L83,52.5L78.1,52.6z"/>
		<polygon class="st1" points="88.4,47.9 90.8,49.6 93.2,45.3 90.8,44.6 		"/>
		<path class="st1" d="M91.4,35.1c0.3,1.8,0.5,5.6,0,6.9c1,0.4,2.6,1.1,2.6,1.1s1.4-4.2,0-8.4C92.7,35,91.4,35.1,91.4,35.1z"/>
		<polygon class="st1" points="90.8,31.2 91.6,33.3 93.6,32.6 92.9,30 		"/>
		<polygon class="st1" points="81.4,23.3 82.1,22 88.4,24.3 85.9,26.1 		"/>
		<polygon class="st1" points="68.6,21.6 76.8,20.1 79.4,20.6 79,22 77.1,21.6 69.4,23 		"/>
		<polygon class="st1" points="64.4,25 65.2,25.6 61.7,31.6 59.4,31.6 		"/>
		<path class="st1" d="M59.2,35.5c-0.7,5,0.8,8.7,1.3,9.1l1.5-0.1c0,0-1.7-6-2.1-9.1L59.2,35.5z"/>
		<path class="st1" d="M62,48.2l1.5-1.3c0,0,2.6,2.7,5.6,3.9c-0.7,1.3-0.9,1.7-0.9,1.7S63.9,50.4,62,48.2z"/>
		<polygon class="st1" points="71.1,51.8 71.1,53.7 75.4,55 75.6,52.5 		"/>
	</g>
	<g>
		<path class="st1" d="M117.1,49.6c0.6,0,0.9-0.1,1.2-0.1c0.1,0,0.2-0.1,0.3-0.1c0.1,0,0.2,0.1,0.2,0.2c0.1,0.1,0.1,0.4,0.1,0.5
			c0,0.1,0,0.2-0.2,0.2c-0.5,0.2-1.2,0.3-1.8,0.3c-1.9,0-2.6-0.9-2.6-2.8c0-2.1,0.9-2.9,2.5-2.9c2,0,2.2,1.1,2.2,2.8
			c0,0.2,0,0.3-0.1,0.3c-0.1,0-0.1,0.1-0.2,0.1h-3.1C115.6,49.3,116.2,49.6,117.1,49.6z M117.9,47.2c0-0.1,0-0.2,0-0.2
			c0-0.7-0.2-1.1-1.1-1.1c-0.9,0-1.2,0.5-1.2,1.4H117.9z"/>
		<path class="st1" d="M121,50.5h-0.7c-0.2,0-0.2-0.1-0.2-0.3V46c0-0.4,0.1-0.6,0.4-0.7c0.7-0.3,1.8-0.5,2.6-0.5
			c1,0,1.4,0.2,1.6,0.7c0.1,0.3,0.1,0.6,0.1,1.1v3.6c0,0.2-0.1,0.3-0.2,0.3h-0.7c-0.2,0-0.2-0.1-0.2-0.3v-3.3c0-0.2,0-0.5-0.1-0.6
			c-0.1-0.2-0.3-0.3-0.8-0.3c-0.6,0-1,0.1-1.1,0.2c-0.1,0-0.2,0.1-0.2,0.1c0,0.1-0.1,0.2-0.1,0.3v3.6
			C121.3,50.4,121.2,50.5,121,50.5z"/>
		<path class="st1" d="M128.5,49.6c0.6,0,0.9-0.1,1.2-0.1c0.1,0,0.2-0.1,0.3-0.1c0.1,0,0.2,0.1,0.2,0.2c0.1,0.1,0.1,0.4,0.1,0.5
			c0,0.1,0,0.2-0.2,0.2c-0.5,0.2-1.2,0.3-1.8,0.3c-1.9,0-2.6-0.9-2.6-2.8c0-2.1,0.9-2.9,2.5-2.9c2,0,2.2,1.1,2.2,2.8
			c0,0.2,0,0.3-0.1,0.3c-0.1,0-0.1,0.1-0.2,0.1h-3.1C127.1,49.3,127.6,49.6,128.5,49.6z M129.4,47.2c0-0.1,0-0.2,0-0.2
			c0-0.7-0.2-1.1-1.1-1.1c-0.9,0-1.2,0.5-1.2,1.4H129.4z"/>
		<path class="st1" d="M132.5,50.5h-0.7c-0.2,0-0.2-0.1-0.2-0.3v-4.1c0-0.4,0.1-0.5,0.3-0.7c0.3-0.2,1.3-0.5,2.1-0.5
			c0.3,0,0.5,0,0.6,0.1c0.1,0,0.2,0.1,0.2,0.2c0,0.2,0,0.5-0.1,0.6c0,0.1-0.1,0.2-0.2,0.2c-0.1,0-0.4,0-0.6,0
			c-0.4,0-0.7,0.1-0.9,0.2c-0.1,0-0.1,0.1-0.2,0.2c0,0.1,0,0.2,0,0.3v3.6C132.7,50.4,132.7,50.5,132.5,50.5z"/>
		<path class="st1" d="M137.5,50.6c-1.6,0-2.3-0.6-2.3-2.7c0-2.3,0.8-2.9,2.6-2.9c0.7,0,1.4,0.1,1.9,0.2c0.2,0.1,0.3,0.2,0.3,0.5V50
			c0,0.5,0,1-0.1,1.4c-0.3,1.1-1.6,1.5-3.6,1.5c-0.2,0-0.3-0.1-0.3-0.2c0-0.1,0-0.4,0-0.5c0-0.2,0.1-0.3,0.3-0.3
			c1.7-0.1,2.2-0.3,2.4-0.7c0.1-0.2,0.2-0.5,0.2-0.8v-0.2C138.5,50.5,138.1,50.6,137.5,50.6z M138.8,46.3c0-0.2-0.1-0.3-0.2-0.3
			c-0.2-0.1-0.6-0.1-0.8-0.1c-1.2,0-1.4,0.5-1.4,1.9c0,1.2,0.2,1.7,1.2,1.7c0.4,0,0.8,0,1-0.2c0.1,0,0.2-0.1,0.2-0.2
			c0,0,0-0.1,0-0.2V46.3z"/>
		<path class="st1" d="M141.9,44c-0.4,0-0.7-0.2-0.7-0.7c0-0.5,0.3-0.7,0.7-0.7c0.4,0,0.7,0.2,0.7,0.7C142.6,43.8,142.4,44,141.9,44
			z M142.3,50.5h-0.7c-0.2,0-0.2-0.1-0.2-0.3v-4.9c0-0.2,0.1-0.3,0.2-0.3h0.7c0.2,0,0.2,0.1,0.2,0.3v4.9
			C142.5,50.4,142.5,50.5,142.3,50.5z"/>
		<path class="st1" d="M148,50c-0.1,0.1-0.2,0.2-0.3,0.2c-0.4,0.2-1.4,0.3-2.1,0.3c-1.7,0-2-0.8-2-1.7c0-0.6,0.2-1,0.6-1.3
			c0.3-0.2,1-0.3,1.7-0.3c0.3,0,0.8,0,1,0v-0.4c0-0.2,0-0.4-0.1-0.6c-0.1-0.2-0.3-0.4-1-0.4c-0.3,0-0.8,0-1.1,0.1
			c-0.1,0-0.4,0.1-0.4,0.1c-0.1,0-0.2-0.1-0.2-0.2c0-0.2-0.1-0.4-0.1-0.5c0-0.2,0.1-0.2,0.2-0.3c0.6-0.2,1.3-0.2,1.8-0.2
			c0.9,0,1.4,0.1,1.7,0.4c0.3,0.3,0.4,0.7,0.4,1.4v2.8C148.1,49.7,148,49.9,148,50z M146,48.1c-0.5,0-0.9,0.1-1.1,0.2
			c-0.2,0.1-0.2,0.3-0.2,0.6c0,0.5,0.2,0.8,1,0.8c0.5,0,0.8-0.1,1-0.1c0.1,0,0.2-0.1,0.2-0.2c0-0.1,0-0.2,0-0.4v-0.8
			C146.7,48.1,146.3,48.1,146,48.1z"/>
		<path class="st1" d="M108.6,38.1c-1.1,1.2-2.3,1.9-3.8,1.9c-2.6,0-4.4-1.7-4.4-4c0-2.5,1.8-4.7,8.3-5v-0.4c0-2.2-0.9-3.2-3.1-3.2
			c-1.4,0-3.2,0.7-4.5,1.5l-0.5-2.2c1.2-0.9,3.3-1.6,5.2-1.6c3.8,0,5.4,1.6,5.4,5.4v5.8c0,1.2,0.2,1.4,1.4,1.4l-0.2,2.1
			c-2.2,0.2-3.3-0.6-3.6-1.8H108.6z M108.6,32.6c-4.1,0.5-5.7,1.4-5.7,3.1c0,1.2,0.9,2.2,2.5,2.2c1.3,0,2.4-0.6,3.2-1.5V32.6z"/>
		<path class="st1" d="M114.4,39.5v-2.2c4.3-3.2,8.1-5.5,8.1-7.9c0-1.4-1.1-2.4-2.9-2.4c-1.5,0-2.9,0.7-4.3,1.7l-0.9-2.1
			c1.4-1.1,3.2-1.9,5.5-1.9c3.1,0,5.3,1.8,5.3,4.4c0,3.3-3,5.1-7,8h7.6v2.4H114.4z"/>
		<path class="st1" d="M136.2,38.1c-1.1,1.2-2.3,1.9-3.8,1.9c-2.6,0-4.4-1.7-4.4-4c0-2.5,1.8-4.7,8.3-5v-0.4c0-2.2-0.9-3.2-3.1-3.2
			c-1.4,0-3.2,0.7-4.5,1.5l-0.5-2.2c1.2-0.9,3.3-1.6,5.2-1.6c3.8,0,5.4,1.6,5.4,5.4v5.8c0,1.2,0.2,1.4,1.4,1.4l-0.2,2.1
			c-2.2,0.2-3.3-0.6-3.6-1.8H136.2z M136.2,32.6c-4.1,0.5-5.7,1.4-5.7,3.1c0,1.2,0.9,2.2,2.5,2.2c1.3,0,2.4-0.6,3.2-1.5V32.6z"/>
	</g>
</g>
</svg>
