<?xml version="1.0" encoding="utf-8"?>
<!-- Generator: Adobe Illustrator 21.0.2, SVG Export Plug-In . SVG Version: 6.00 Build 0)  -->
<svg version="1.1" id="Livello_1" xmlns="http://www.w3.org/2000/svg" xmlns:xlink="http://www.w3.org/1999/xlink" x="0px" y="0px"
	 viewBox="0 0 207.1 75.5" style="enable-background:new 0 0 207.1 75.5;" xml:space="preserve">
<style type="text/css">
	.st0{fill-rule:evenodd;clip-rule:evenodd;fill:#FFFFFF;}
	.st1{fill:#FFFFFF;}
	.st2{fill:none;}
	.st3{fill:#FDFDFD;}
</style>
<g>
	<path class="st1" d="M77.4,11.6v52.3h52.3V11.6H77.4z M96.5,48.4c0.3,0,0.7,0.3,0.7,0.6c0,0.4-0.3,0.7-0.7,0.7
		c-0.4,0-0.7-0.3-0.7-0.7C95.8,48.7,96.2,48.4,96.5,48.4z M90.5,56.1c0,0.2-0.1,0.3-0.3,0.3h-6.2c-0.1,0-0.2-0.1-0.2-0.2
		c0-0.1,0.1-0.2,0.2-0.2h0.7c0.1,0,0.2-0.1,0.2-0.2v-7c0-0.1-0.1-0.2-0.2-0.2h-0.7c-0.1,0-0.2-0.1-0.2-0.2c0-0.1,0.1-0.2,0.2-0.2h6
		c0.2,0,0.3,0.1,0.3,0.3v1.5c0,0.1-0.1,0.2-0.2,0.2c-0.1,0-0.2-0.1-0.2-0.2c-0.2-1.3-0.9-1.5-2.1-1.5h-1.4c-0.1,0-0.2,0.1-0.2,0.2
		v2.9c0,0.1,0.1,0.2,0.2,0.2c1,0,1.3-0.1,1.5-1.1c0-0.1,0.1-0.2,0.2-0.2c0.1,0,0.2,0.1,0.2,0.2v2.8c0,0.1-0.1,0.2-0.2,0.2
		c-0.1,0-0.2-0.1-0.2-0.2c-0.1-1-0.5-1.2-1.5-1.3c-0.1,0-0.2,0.1-0.2,0.2v3.2c0,0.1,0.1,0.2,0.2,0.2h1.3c1.6,0,2.1-0.1,2.5-1.8
		c0-0.1,0.1-0.2,0.2-0.2c0.1,0,0.2,0.1,0.2,0.2L90.5,56.1z M94.3,52.7c-0.3,0-0.6-0.3-0.6-0.5c0-0.1,0-0.1,0-0.2c0,0,0-0.1,0-0.1
		c0,0,0,0-0.1,0c0,0-0.4,0.2-0.7,0.7c-0.2,0.4-0.3,0.9-0.3,1.3v2c0,0.1,0.1,0.2,0.2,0.2h0.6c0.1,0,0.2,0.1,0.2,0.2
		c0,0.1-0.1,0.2-0.2,0.2H91c-0.1,0-0.2-0.1-0.2-0.2c0-0.1,0.1-0.2,0.2-0.2h0.4c0.1,0,0.2-0.1,0.2-0.2v-3.7c0-0.1-0.1-0.2-0.2-0.2H91
		c-0.1,0-0.2-0.1-0.2-0.2c0-0.1,0.1-0.2,0.2-0.2h0.3c0.4,0,0.8,0,1.2-0.1h0c0.1,0,0.2,0.1,0.2,0.2v0.7c0.2-0.3,0.6-0.9,1.4-0.9
		c0.5,0,0.8,0.3,0.8,0.7C94.9,52.5,94.6,52.7,94.3,52.7z M97.6,56.5h-2.3c-0.1,0-0.2-0.1-0.2-0.2c0-0.1,0.1-0.2,0.2-0.2h0.4
		c0.1,0,0.2-0.1,0.2-0.2v-3.7c0-0.1-0.1-0.2-0.2-0.2h-0.4c-0.1,0-0.2-0.1-0.2-0.2c0-0.1,0.1-0.2,0.2-0.2h0.3c0.4,0,0.8,0,1.2-0.1h0
		c0.1,0,0.2,0.1,0.2,0.2v4.2c0,0.1,0.1,0.2,0.2,0.2h0.3c0.1,0,0.2,0.1,0.2,0.2C97.8,56.4,97.7,56.5,97.6,56.5z M100.2,56.6
		c-1.9,0-2.6-1.5-2.6-2.5c0-2.2,1.9-2.7,2.6-2.7c0.8,0,2,0.4,2,1.3c0,0.3-0.2,0.7-0.6,0.7c-0.4,0-0.7-0.3-0.7-0.6
		c0-0.3,0.2-0.5,0.3-0.6c0,0,0.1-0.1,0.1-0.1c0-0.3-0.7-0.4-1-0.4c-1.1,0-1.5,0.6-1.5,2.4c0,0.8,0.2,1.4,0.3,1.4
		c0.2,0.4,0.6,0.6,1.2,0.7h0.1c0.7,0,1.3-0.5,1.6-1.3c0-0.1,0.1-0.1,0.2-0.1c0.1,0,0.2,0.1,0.2,0.2c0,0,0,0,0,0.1
		C102,55.8,101.6,56.6,100.2,56.6z M107.6,56.5h-2.1c-0.1,0-0.2-0.1-0.2-0.2c0-0.1,0.1-0.2,0.2-0.2h0.3l0,0l0,0l-1.9-2.2
		c0,0,0,0,0,0v2c0,0.1,0.1,0.2,0.2,0.2h0.3c0.1,0,0.2,0.1,0.2,0.2c0,0.1-0.1,0.2-0.2,0.2h-2.1c-0.1,0-0.2-0.1-0.2-0.2
		c0-0.1,0.1-0.2,0.2-0.2h0.2c0.1,0,0.2-0.1,0.2-0.2v-7.2c0-0.1-0.1-0.2-0.2-0.2h-0.2c-0.1,0-0.2-0.1-0.2-0.2c0-0.1,0.1-0.2,0.2-0.2
		h0.1c0.5,0,0.9,0,1.3-0.1h0c0.1,0,0.2,0.1,0.2,0.2v5.5c0,0,0,0,0,0l1.9-1.6l-0.4,0c-0.1,0-0.2-0.1-0.2-0.2c0-0.1,0.1-0.2,0.2-0.2
		h1.8c0.1,0,0.2,0.1,0.2,0.2c0,0.1-0.1,0.2-0.2,0.2h-0.5c-0.1,0-0.1,0-0.1,0l-1.6,1.3c0,0,0,0,0,0.1c0,0,0,0,0,0.1l2.2,2.6
		c0,0,0.1,0.1,0.2,0.1h0.3c0.1,0,0.2,0.1,0.2,0.2S107.7,56.5,107.6,56.5z M110.2,56.6c-0.5,0-1.1-0.2-1.4-0.5l-0.2,0.3
		c0,0.1-0.1,0.1-0.2,0.1c-0.1,0-0.2-0.1-0.2-0.2V55c0-0.1,0.1-0.2,0.2-0.2c0.1,0,0.2,0.1,0.2,0.2c0.3,0.9,0.9,1.4,1.7,1.4
		c0.6,0,1.2-0.4,1.2-1c0-0.4-0.7-0.7-1.7-0.9l-0.1,0c-0.8-0.2-1.5-0.3-1.5-1.4c0-0.6,0.4-1.5,1.8-1.5c0.4,0,0.8,0.1,1.2,0.4l0.2-0.2
		c0,0,0.1-0.1,0.2-0.1c0.1,0,0.2,0.1,0.2,0.2v1.1c0,0.1-0.1,0.2-0.2,0.2c-0.1,0-0.2-0.1-0.2-0.1c-0.2-0.7-0.7-1.1-1.3-1.1h0
		c-1,0-1.1,0.8-1.1,0.8c0,0.3,0.1,0.5,2,0.8c1,0.2,1.4,0.6,1.4,1.4C112.1,55.9,111.3,56.6,110.2,56.6z M114.8,56.6
		c-1.4,0-2.5-1.1-2.5-2.6c0-1.4,1.1-2.6,2.5-2.6c1.4,0,2.5,1.1,2.5,2.6C117.3,55.5,116.2,56.6,114.8,56.6z M122.7,56.5h-2.1
		c-0.1,0-0.2-0.1-0.2-0.2c0-0.1,0.1-0.2,0.2-0.2h0.2c0.1,0,0.2-0.1,0.2-0.2v-3c0-0.9-0.3-1-0.7-1c-0.8,0-1.5,1.1-1.5,2v2
		c0,0.1,0.1,0.2,0.2,0.2h0.3c0.1,0,0.2,0.1,0.2,0.2c0,0.1-0.1,0.2-0.2,0.2h-2.1c-0.1,0-0.2-0.1-0.2-0.2c0-0.1,0.1-0.2,0.2-0.2h0.3
		c0.1,0,0.2-0.1,0.2-0.2v-3.7c0-0.1-0.1-0.2-0.2-0.2h-0.3c-0.1,0-0.2-0.1-0.2-0.2c0-0.1,0.1-0.2,0.2-0.2h0.1c0.2,0,0.5,0,0.7,0
		c0.2,0,0.4,0,0.5-0.1c0.1,0,0.2,0.1,0.2,0.2v0.9c0.4-0.7,1-1.1,1.7-1.1c0.6,0,1.6,0.2,1.6,1.3v3.1c0,0.1,0.1,0.2,0.2,0.2h0.3
		c0.1,0,0.2,0.1,0.2,0.2C122.9,56.4,122.8,56.5,122.7,56.5z"/>
	<path class="st1" d="M114.8,51.8c-1.2,0-1.2,1.2-1.2,2.2s0,2.2,1.2,2.2c1.2,0,1.2-1.2,1.2-2.2C116.1,53,116.1,51.8,114.8,51.8z"/>
</g>
</svg>
