<?xml version="1.0" encoding="utf-8"?>
<!-- Generator: Adobe Illustrator 21.0.2, SVG Export Plug-In . SVG Version: 6.00 Build 0)  -->
<svg version="1.1" id="Livello_1" xmlns="http://www.w3.org/2000/svg" xmlns:xlink="http://www.w3.org/1999/xlink" x="0px" y="0px"
	 viewBox="0 0 207.1 75.5" style="enable-background:new 0 0 207.1 75.5;" xml:space="preserve">
<style type="text/css">
	.st0{fill-rule:evenodd;clip-rule:evenodd;fill:#FFFFFF;}
	.st1{fill:#FFFFFF;}
	.st2{fill:none;}
	.st3{fill:#FDFDFD;}
</style>
<g>
	<path class="st0" d="M128.5,37.8c0-13.8-11.2-24.9-24.9-24.9c-13.8,0-24.9,11.2-24.9,24.9c0,5.6,1.9,10.8,5,14.9h0
		c4.5,6.1,11.8,10,19.9,10c8.2,0,15.4-3.9,19.9-10v0C126.6,48.5,128.5,43.4,128.5,37.8z M103.5,17.1c2.1,0,4.1,0.3,6.1,0.9
		l-6.1,13.6L97.5,18C99.4,17.4,101.4,17.1,103.5,17.1z M89.3,52.7L89.3,52.7c-3.9-3.8-6.4-9.1-6.4-14.9c0-2.2,0.3-4.3,1-6.3
		l9.5,21.2h0l1.7,3.9C92.9,55.6,91,54.3,89.3,52.7z M86.8,25.7c1.6-2.3,3.7-4.2,6.2-5.7l7.6,17h6.1l7.6-17c2.4,1.5,4.5,3.4,6.2,5.7
		l-9.7,21.8l-4-9h-6.1l-4,9L86.8,25.7z M113.7,52.7l9.5-21.2c0.6,2,1,4.1,1,6.3c0,5.9-2.5,11.2-6.4,14.9h0c-1.7,1.6-3.6,2.9-5.7,3.9
		L113.7,52.7L113.7,52.7z M107.5,52.7l2.1,4.8c-1.9,0.6-4,0.9-6.1,0.9c-2.1,0-4.1-0.3-6.1-0.9l2.1-4.8v0l3.9-8.8
		C103.5,43.9,107.5,52.7,107.5,52.7z"/>
</g>
</svg>
