<?xml version="1.0" encoding="utf-8"?>
<!-- Generator: Adobe Illustrator 21.0.2, SVG Export Plug-In . SVG Version: 6.00 Build 0)  -->
<svg version="1.1" id="Livello_1" xmlns="http://www.w3.org/2000/svg" xmlns:xlink="http://www.w3.org/1999/xlink" x="0px" y="0px"
	 viewBox="0 0 207.1 75.5" style="enable-background:new 0 0 207.1 75.5;" xml:space="preserve">
<style type="text/css">
	.st0{fill-rule:evenodd;clip-rule:evenodd;fill:#FFFFFF;}
	.st1{fill:#FFFFFF;}
	.st2{fill:none;}
	.st3{fill:#FDFDFD;}
</style>
<g>
	<path class="st1" d="M75.6,13.5V62h55.8V13.5H75.6z M98.8,18.9c2.5-2.5,6.6-2.5,9.1,0l13.4,13.4h-14.5l-5.8-5.9
		c-1.1-1.1-2.9-1.1-4,0l-5.8,5.9h-5.7L98.8,18.9z M84.6,34.1h37.9c1.2,0,2.2,1,2.2,2.2c0,1.2-1,2.2-2.2,2.2H84.6
		c-1.2,0-2.2-1-2.2-2.2C82.3,35.1,83.3,34.1,84.6,34.1z M129.7,60.3H77.3V41.7h52.4V60.3z"/>
	<path class="st1" d="M107.7,30.5l9.3,0l-10.4-10.4c-0.9-0.9-2.4-0.9-3.3,0l-3.5,3.5c0.7,0.1,1.4,0.5,2,1L107.7,30.5z"/>
	<path class="st1" d="M122.4,52h3.9v-2.1h-3.9v-2.7c0-0.6,0.5-1,1-1h3.8v-2h-7.4c-1.1,0-2.1,0.9-2.1,2.1v11.4h4.6V52z"/>
	<path class="st1" d="M107.8,57.7h7.4v-2h-3.8c-0.6,0-1-0.5-1-1V52h3.9v-2.1h-3.9v-2.7c0-0.6,0.5-1,1-1h3.8v-2h-7.4
		c-1.1,0-2.1,0.9-2.1,2.1v9.4C105.7,56.8,106.7,57.7,107.8,57.7z"/>
	<path class="st1" d="M95.8,57.7h7.4v-2h-3.8c-0.6,0-1-0.5-1-1V52h3.9v-2.1h-3.9v-2.7c0-0.6,0.5-1,1-1h3.8v-2h-7.4
		c-1.1,0-2.1,0.9-2.1,2.1v9.4C93.7,56.8,94.6,57.7,95.8,57.7z"/>
	<path class="st1" d="M84,45.8h0.7c1.1,0,1.9,1,1.9,2.5c0,1.6-0.8,2.7-2,2.7h-0.4l3,6.6h5.2l-3.9-6.1c1.6-0.5,2.5-1.8,2.5-3.3
		c0-2.6-1.9-4.1-4.2-4.1h-6.9v13.5H84V45.8z"/>
</g>
</svg>
