<?xml version="1.0" encoding="utf-8"?>
<!-- Generator: Adobe Illustrator 21.0.2, SVG Export Plug-In . SVG Version: 6.00 Build 0)  -->
<svg version="1.1" id="Livello_1" xmlns="http://www.w3.org/2000/svg" xmlns:xlink="http://www.w3.org/1999/xlink" x="0px" y="0px"
	 viewBox="0 0 207.1 75.5" style="enable-background:new 0 0 207.1 75.5;" xml:space="preserve">
<style type="text/css">
	.st0{fill-rule:evenodd;clip-rule:evenodd;fill:#FFFFFF;}
	.st1{fill:#FFFFFF;}
	.st2{fill:none;}
	.st3{fill:#FDFDFD;}
</style>
<g>
	<path class="st0" d="M170.7,46.3c-2.1,0-8-0.5-11.2-0.6c-2.5,0-4.5,0.2-5.3,0.3c0.3,0.3,0.5,0.7,0.8,1c1,0,3.9,0.1,9.4,1.1
		c4.5,0.8,7,0.9,8.2,0.9c1.2-0.9,2.3-1.9,3.2-3.2C174.6,46,172.3,46.3,170.7,46.3L170.7,46.3z"/>
	<path class="st0" d="M164.3,48.4c-4.8-0.9-7.7-1.1-9-1.1c2.4,2.5,5.8,4.1,9.6,4.1c2.6,0,5-0.7,7.1-2
		C170.7,49.3,168.3,49.1,164.3,48.4L164.3,48.4z"/>
	<path class="st0" d="M47.7,48.5c-0.6-0.4-0.7-0.8-0.7-1.2c0,0,0-11.4,0-12.5c0-1.1-0.5-1.5-0.8-1.5c-0.7,0-4.1,1.5-4.9,1.9
		c-0.8,0.4-0.2,1,0.2,1.2c0.4,0.2,0.7,0.4,0.7,1.3c0,1,0,9.2,0,9.6c0,0.4-0.1,0.9-0.7,1.2c-0.1,0.1-0.2,0.2-0.2,0.3
		c-0.1-0.1-0.2-0.3-0.4-0.4c-0.9-0.7-0.8-1-0.8-1.8c0-0.8,0-16.4,0-17.3c0-0.9-0.1-1.6,0.4-1.6c1.2,0,1.9,2.3,2.6,3.9
		c0.7,1.6,2.9,0.7,2.6-0.4c-0.2-1.1-0.7-4.2-1-5.3c-0.2-1.1-0.7-1.8-1.1-1.8c-0.4,0-1.2,0.7-1.2,0.7l-5.1,0.1L32,24.8
		c0,0-0.7-0.7-1.2-0.7c-0.4,0-0.9,0.7-1.1,1.8c-0.2,1.1-0.7,4.2-1,5.3c-0.2,1.1,1.9,1.9,2.6,0.4c0.7-1.6,1.3-3.9,2.6-3.9
		c0.5,0,0.4,0.7,0.4,1.6c0,0.9,0,16.5,0,17.3c0,0.8,0.1,1.1-0.8,1.8c-0.9,0.7-0.1,1.4,1.3,1.4h4.5c0.9,0,1.5-0.3,1.7-0.6
		c0.1,0.3,0.4,0.6,0.8,0.6h5.1C47.7,49.7,48.3,48.8,47.7,48.5L47.7,48.5z"/>
	<path class="st0" d="M107.4,48.5c-0.6-0.4-0.7-0.8-0.7-1.2c0,0,0-19.6,0-20.7c0-1.1-0.5-1.5-0.8-1.5c-0.7,0-4.1,1.5-4.9,1.9
		c-0.8,0.4-0.2,1,0.2,1.2c0.4,0.2,0.7,0.4,0.7,1.3c0,0.3,0,2.2,0,4.6c-0.3-0.4-0.9-0.7-1.7-0.7c-2.9,0-2.4,2.1-4,2.5
		c0-0.6,0-1,0-1.2c0-1.1-0.5-1.5-0.8-1.5c-0.7,0-4.1,1.5-4.9,1.9c-0.8,0.4-0.2,1,0.2,1.2c0.4,0.2,0.7,0.4,0.7,1.3c0,1,0,9.2,0,9.6
		c0,0.4-0.1,0.9-0.7,1.2c-0.6,0.4-0.1,1.3,0.6,1.3h5.1c0.7,0,1.2-0.9,0.6-1.3c-0.6-0.4-0.7-0.8-0.7-1.2c0,0,0-3.1,0-6.2
		c0.4-1.2,1.3-3.7,2.7-3.7c0.6,0,0.4,1.6,1.8,1.6c0.3,0,0.8-0.7,1.2-1.6c0,4.7,0,9.7,0,9.9c0,0.4-0.1,0.9-0.7,1.2
		c-0.6,0.4-0.1,1.3,0.6,1.3h5.1C107.5,49.7,108,48.8,107.4,48.5L107.4,48.5z"/>
	<path class="st0" d="M177.8,34.6l-7.2,1.8l0.8-1.5c1.7-0.3,3.8-0.8,5.9-1.9c-0.2-0.4-0.3-0.8-0.5-1.1c-1.7,0.9-3.3,1.3-4.5,1.4
		l1.1-2.1l2.9-0.2c-0.3-0.4-0.5-0.8-0.8-1.2h-3.3l1.3-2.1c-0.3-0.2-0.6-0.4-0.8-0.6l-2.7,3.7l-0.8-1.5l0.1-0.5l2.5-2.2
		c-0.3-0.2-0.6-0.3-0.9-0.5l-2.7,1.4l-1.4-2.7c-0.4-0.1-0.8-0.1-1.2-0.1l1.5,3.8l-0.4,0.4l-2.2-4.2c-0.1,0-0.3,0-0.4,0l-1.7,3.5
		l-1.7-2.9c-0.6,0.2-1.1,0.4-1.6,0.7l-0.1,2.3l-2.5-0.7c-0.5,0.4-1,0.9-1.4,1.3l3,3.7l-0.8,0.1l-2.7-3.1c-0.3,0.4-0.6,0.8-0.9,1.2
		l1.7,2l-2.8,0.2c-0.6,1.6-1,3.2-1,5c0,2.9,0.9,5.6,2.5,7.8c0.6-0.1,2.8-0.4,5.4-0.4c3.2,0,9,0.5,11.2,0.5c1.8,0,4.4-0.4,5.5-0.6
		c1.3-2.1,2.1-4.6,2.1-7.2C178.3,36.9,178.1,35.7,177.8,34.6z M171.2,31.4l0.7-0.1l-1.3,2.1c-0.3,0-0.5,0-0.7,0L171.2,31.4z
		 M169.6,35.2l-1.1,1.8l-1,0.3l1.3-2C169,35.2,169.3,35.2,169.6,35.2z M168.3,31.6l0.4,1l-2.2,3l-0.1-2.7L168.3,31.6z M162.3,32.4
		l0.3,2.4l-1-0.9L162.3,32.4z M161,28.9l-0.6-0.1l-0.1-1L161,28.9z M161.6,30.5l-1,1.8l-0.1-2.1L161.6,30.5z M156.9,29l2,0.6
		l0.1,1.4L156.9,29z M157.5,33.9l1.9-0.1l0.7,0.6l-1.9,1.5l-1.8-0.7L157.5,33.9z M155.4,34l-0.5,0.7l-1.6-0.6L155.4,34z M153.4,35.4
		l0.7,0.3l-0.9,1.3C153.2,36.4,153.3,35.9,153.4,35.4z M163.8,43.5c-3.3-0.5-6.6-0.9-9.8-1c-0.5-1.4-0.8-2.8-0.8-4.4
		c0,0,0-0.1,0-0.1l0.6,0h0.4l1.3-1.6l1.5,0.7l-0.7,1l1.7,0.1l3.3-2.7l0.8,0.9l-3.3,1.8l2.7,0.1l1.7-0.7l0.6,0.7L163.8,43.5z
		 M164.4,34.9l-0.2-0.9l0.8-0.4l0,1.3L164.4,34.9z M165.1,31.8l-1.1,0.8l-0.6-2.5l1.2-2.7l1,2.1L165.1,31.8z M175.2,44.8
		c-2.8-0.1-5.7-0.4-8.6-0.8c-0.6-2.5-0.3-5.1-0.3-5.1l4.4-1.1l0.6,0.9l1.2-0.1l-0.3-1.2l1.7-0.4c0.3,0.4,1.1,1.4,1.9,1.9l0.9-0.4
		c0,0-0.8-1-1.1-1.9l1.5-0.4c0.1,0.6,0.2,1.3,0.2,1.9C177.2,40.6,176.4,42.9,175.2,44.8z"/>
	<path class="st0" d="M75.1,33c-1.3,0-1.1,0.6-2.1,0.9c0-4,0-7.4,0-7.8c0-1.1-0.5-1.5-0.8-1.5c-0.7,0-3.8,1.5-4.6,1.9
		c-0.8,0.4-0.2,1.3,0.2,1.5c0.4,0.2,0.4,0.4,0.4,1.3c0,0.8,0,16.2,0,18.2c0,0.5,0,0.9,0.1,1.2c0-0.1-0.1-0.2-0.2-0.2
		c-0.6-0.4-0.7-0.8-0.7-1.2c0-0.9,0.3-13.8-4.5-13.8c-1.7,0-1.8,1.3-2.9,1.6c-0.5-1-1.3-1.8-2.7-1.8c-2.4,0-2.1,1.4-3.3,1.7
		c0-0.1,0-0.2,0-0.2c0-1.1-0.5-1.5-0.8-1.5c-0.7,0-4.1,1.5-4.9,1.9c-0.8,0.4-0.2,1,0.2,1.2c0.4,0.2,0.7,0.4,0.7,1.3c0,1,0,9.2,0,9.6
		c0,0.4-0.1,0.9-0.7,1.2c-0.6,0.4-0.1,1.3,0.6,1.3H54c0.7,0,1.2-0.9,0.6-1.3c-0.6-0.4-0.7-0.8-0.7-1.2c0,0,0-5.4,0-9.1
		c0-0.9,0.7-1.6,1.2-1.6c0.5,0,1,0.4,1,1.5c0,1,0,8.8,0,9.2c0,0.4-0.1,0.9-0.7,1.2c-0.6,0.4-0.1,1.3,0.6,1.3h4.6
		c0.7,0,1.2-0.9,0.6-1.3c-0.6-0.4-0.7-0.8-0.7-1.2c0,0,0-9.7,0-9.8c0-0.3,0.5-0.6,0.9-0.6c1.3,0,1.7,9.1,1.7,10.4
		c0,0.4-0.1,0.9-0.7,1.2c-0.6,0.4-0.1,1.3,0.6,1.3h4.6c0.5,0,0.9-0.4,0.9-0.8c0.2,0.9,0.6,0.8,0.9,0.8c0.4,0,0.7,0.2,1.7-1.4
		c0.2-0.3,0.6-0.1,1.2,0.5c0.5,0.6,0.9,1.3,3.2,1.3s4.8-0.4,4.8-8.7C80.1,34.9,76.5,33,75.1,33z M74.4,46c-1.2,0-1.4-3.7-1.4-5
		c0-1.3,0.4-5.5,1.5-5.5c1.1,0,1.6,3.6,1.6,5.5C76.1,42.9,75.6,46,74.4,46z"/>
	<path class="st0" d="M88.6,44.9c0,1.3-0.6,1.2-1.2,1.2c-0.5,0-1.8,0.1-2.8-2.3c0-0.3,0-1,0.9-1.2c0,0,4.2-1.6,4.7-1.9
		c0.5-0.2,0.5-1.1,0.5-1.8c0-0.7-1-5.8-5-5.8c-4,0-5.5,4.3-5.5,8.9c0,4.6,2.2,8.1,6.1,8.1c4,0,4.6-2.5,4.6-4.1
		C90.9,44.3,88.6,43.9,88.6,44.9z M83.8,40.6c-0.6-4.7,0.4-5.2,1-5.2c0.5,0,1.8,1.7,1.8,3.3c0,1.6-1.4,2.1-2.1,2.1
		C84.2,40.9,83.8,40.8,83.8,40.6z"/>
	<path class="st0" d="M133.3,48.5c-0.6-0.4-0.7-0.8-0.7-1.2c0-0.9,0.3-13.8-4.5-13.8c-1.5,0-1.8,1-2.5,1.4c0-0.1,0-0.1,0-0.2
		c0-1.1-0.5-1.5-0.8-1.5c-0.7,0-4.1,1.5-4.9,1.9c-0.8,0.4-0.2,1,0.2,1.2c0.4,0.2,0.7,0.4,0.7,1.3c0,1,0,9.2,0,9.6
		c0,0.4-0.1,0.8-0.7,1.2c-0.1-0.5-0.5-1.1-1-1.1c-0.5,0-0.6-0.4-0.6-1c0-0.5,0-0.8-0.5-6.8c-0.5-6-3-5.8-5.7-5.8c-2.7,0-5,1.3-5,3.3
		c0,2.1,1.3,2.2,2.4,2.2c1,0,1.8-0.2,1.8-1.6c0-1.3-0.9-1.8-0.9-1.8s0.4-0.1,1.4-0.1c1,0,1.5,1.5,1.5,2.9c0,1.1-1.9,1.2-2.7,1.5
		c-2.5,1.3-3.8,3.3-3.8,5.8c0,2.5,1.5,3.8,1.9,3.8c0.5,0,3.3,0,4.3,0c1,0,1.4-0.5,1.7-0.5c0.3,0,0.5,0.5,0.9,0.5c0.4,0,0.9,0,2.7,0
		c0.8,0,1.2-0.1,1.4-0.3c0.2,0.2,0.4,0.3,0.7,0.3h5.1c0.7,0,1.2-0.9,0.6-1.3c-0.6-0.4-0.7-0.8-0.7-1.2c0,0,0-5.7,0-9.5
		c0-0.4,0.5-0.9,1-0.9c1.3,0,1.7,9.1,1.7,10.4c0,0.4-0.1,0.9-0.7,1.2c-0.6,0.4-0.1,1.3,0.6,1.3h4.6C133.4,49.7,134,48.8,133.3,48.5z
		 M113.8,46.4c0,0.5-0.1,1.2-0.9,1.2c-0.7,0-1.5-0.2-1.5-2.7c0-2.4,1-3.4,2.3-3.4C113.8,41.5,113.8,45.9,113.8,46.4z"/>
	<path class="st0" d="M145.6,48.5c-0.6-0.4-0.7-0.8-0.7-1.2c0,0,0-19.1,0-20.2c0-1.1-0.5-1.5-0.8-1.5c-0.5,0-2.2,1-3.5,1.6
		c-0.6,0.3-1.2,0.2-1.5,0.3c-0.8,0.4-0.2,1,0.2,1.2c0.4,0.2,0.7,0.4,0.7,1.3c0,0.3,0,2.3,0,4.8c-0.3-0.3-1.1-0.9-2.3-0.9
		c-1.6,0-4.8,3-4.8,9.2c0,2.6,0.8,4.5,1.3,5.7c0.5,1.2,1,1,1.8,1c0.6,0,9,0,9,0C145.7,49.7,146.2,48.8,145.6,48.5z M138.9,47.1
		c-0.5,0-1.8-1.4-1.8-4.9c0-3.5,0.9-5.5,1.3-5.5c0.7,0,1.8,1.9,1.8,5.4C140.3,45.6,139.4,47.1,138.9,47.1z"/>
	<path class="st0" d="M134.9,26.8c-0.7,0-1.3,0.5-1.3,1.2c0,0.7,0.6,1.2,1.3,1.2c0.7,0,1.3-0.5,1.3-1.2
		C136.1,27.4,135.5,26.8,134.9,26.8z M134.9,29.1c-0.6,0-1-0.4-1-1c0-0.6,0.4-1,1-1c0.6,0,1,0.4,1,1
		C135.9,28.7,135.4,29.1,134.9,29.1z"/>
	<path class="st0" d="M135.1,28.2c0.2,0,0.4-0.1,0.4-0.4c0-0.3-0.2-0.4-0.5-0.4h-0.5v1.4h0.2v-0.6h0.2l0.4,0.6h0.2L135.1,28.2z
		 M134.6,28v-0.4h0.3c0.2,0,0.3,0,0.3,0.2c0,0.2-0.2,0.2-0.3,0.2H134.6z"/>
</g>
</svg>
