<?xml version="1.0" encoding="utf-8"?>
<!-- Generator: Adobe Illustrator 21.0.2, SVG Export Plug-In . SVG Version: 6.00 Build 0)  -->
<svg version="1.1" id="Livello_1" xmlns="http://www.w3.org/2000/svg" xmlns:xlink="http://www.w3.org/1999/xlink" x="0px" y="0px"
	 viewBox="0 0 207.1 75.5" style="enable-background:new 0 0 207.1 75.5;" xml:space="preserve">
<style type="text/css">
	.st0{fill-rule:evenodd;clip-rule:evenodd;fill:#FFFFFF;}
	.st1{fill:#FFFFFF;}
	.st2{fill:none;}
	.st3{fill:#FDFDFD;}
</style>
<g>
	<polygon class="st1" points="91,29.7 88.6,29.7 88.6,20 85,20 85,17.9 94.6,17.9 94.6,20 91,20 	"/>
	<polygon class="st1" points="97.9,24.4 97.9,29.7 95.5,29.7 95.5,17.9 97.9,17.9 97.9,22.4 102.5,22.4 102.5,17.9 105,17.9 
		105,29.7 102.5,29.7 102.5,24.4 	"/>
	<polygon class="st1" points="114.6,20 108.4,20 108.4,22.5 113.8,22.5 113.8,24.5 108.4,24.5 108.4,27.6 114.6,27.6 114.6,29.7 
		106.1,29.7 106.1,17.9 114.6,17.9 	"/>
	<polygon class="st1" points="68.5,31.5 70.8,31.5 70.8,43.3 68.3,43.3 63.5,34.9 63.5,34.9 63.5,43.3 61.2,43.3 61.2,31.5 
		63.8,31.5 68.4,39.7 68.5,39.7 	"/>
	<path class="st1" d="M77.6,41.5c1.3,0,3.2-0.8,3.2-4.1c0-3.3-1.9-4.1-3.2-4.1c-1.3,0-3.2,0.8-3.2,4.1
		C74.3,40.7,76.2,41.5,77.6,41.5 M77.6,31.2c1.6,0,5.7,0.7,5.7,6.2c0,5.5-4.1,6.2-5.7,6.2c-1.6,0-5.7-0.7-5.7-6.2
		C71.9,31.9,76,31.2,77.6,31.2"/>
	<polygon class="st1" points="100.6,43.3 98.1,43.3 98.1,33.6 94.6,33.6 94.6,31.5 104.1,31.5 104.1,33.6 100.6,33.6 	"/>
	<polygon class="st1" points="107.5,38 107.5,43.3 105,43.3 105,31.5 107.5,31.5 107.5,36 112.1,36 112.1,31.5 114.6,31.5 
		114.6,43.3 112.1,43.3 112.1,38 	"/>
	<path class="st1" d="M89.5,36.7c1.3,0,1.9-0.4,1.9-1.6c0-0.6-0.3-1.5-1.7-1.5h-3.1v3.2H89.5z M84.2,31.5h6c3.1,0,3.7,2.3,3.7,3.3
		c0,1.3-0.7,2.4-1.8,2.8c1,0.4,1.5,0.8,1.5,3c0,1.7,0,2.2,0.5,2.3v0.3h-2.7c-0.2-0.6-0.3-1.2-0.3-2.4c0-1.6-0.1-2.2-1.9-2.2h-2.5
		v4.6h-2.4V31.5z"/>
	<polygon class="st1" points="78.5,57.3 76,57.3 76,45.2 84.6,45.2 84.6,47.3 78.5,47.3 78.5,50 83.9,50 83.9,52.2 78.5,52.2 	"/>
	<path class="st1" d="M87.3,52.7h3.1l-1.5-4.8h0L87.3,52.7z M85.8,57.3h-2.7l4.3-12.1h2.9l4.3,12.1h-2.8l-0.8-2.5h-4.5L85.8,57.3z"
		/>
	<path class="st1" d="M102.4,49.2c-0.2-0.7-0.6-2.1-2.7-2.1c-1.2,0-3,0.8-3,4.2c0,2.2,0.9,4.1,3,4.1c1.4,0,2.4-0.8,2.7-2.3h2.5
		c-0.5,2.6-2.2,4.5-5.3,4.5c-3.2,0-5.5-2.2-5.5-6.4c0-4.2,2.4-6.4,5.6-6.4c3.6,0,5.1,2.5,5.2,4.3H102.4z"/>
	<polygon class="st1" points="114.6,47.3 108.2,47.3 108.2,49.9 113.9,49.9 113.9,52 108.2,52 108.2,55.1 114.6,55.1 114.6,57.3 
		105.9,57.3 105.9,45.2 114.6,45.2 	"/>
	<path class="st1" d="M70.8,54.2h0.6c0.5,0,1,0,1-0.6c0-0.5-0.4-0.6-0.8-0.6h-0.8V54.2z M70.2,52.5h1.5c0.9,0,1.3,0.4,1.3,1.1
		c0,0.7-0.4,1-1,1l1.1,1.7h-0.6l-1-1.6h-0.6v1.6h-0.6V52.5z M71.5,57.2c1.5,0,2.7-1.2,2.7-2.8c0-1.6-1.2-2.8-2.7-2.8
		c-1.5,0-2.7,1.2-2.7,2.8C68.8,56,69.9,57.2,71.5,57.2 M71.5,51.1c1.8,0,3.3,1.4,3.3,3.3c0,1.9-1.5,3.3-3.3,3.3
		c-1.8,0-3.3-1.4-3.3-3.3C68.2,52.5,69.7,51.1,71.5,51.1"/>
	<path class="st1" d="M122.6,56.5v-6.2c0-2.8-2.3-5.1-5.1-5.1l-0.6,0v12.1h5.7L122.6,56.5L122.6,56.5z"/>
	<path class="st1" d="M145.9,56.5V46.2c0-15.6-12.7-28.4-28.4-28.4h-0.3l0,0H117v11.8h0.8c9.2,0.1,16.7,7.6,16.8,16.8l0,8.3h0v2.5
		h11.3L145.9,56.5L145.9,56.5z"/>
	<path class="st1" d="M132.8,56.9V46.7c0-8.2-6.6-14.8-14.7-15.2v0h-0.2c-0.1,0-0.2,0-0.3,0h-0.3l0,0H117v2.2v9.6h0.3v0h0.3
		c3.8,0,6.9,3.1,6.9,6.9l0,7h8.4L132.8,56.9L132.8,56.9z"/>
</g>
</svg>
