<?xml version="1.0" encoding="utf-8"?>
<!-- Generator: Adobe Illustrator 21.0.2, SVG Export Plug-In . SVG Version: 6.00 Build 0)  -->
<svg version="1.1" id="Livello_1" xmlns="http://www.w3.org/2000/svg" xmlns:xlink="http://www.w3.org/1999/xlink" x="0px" y="0px"
	 viewBox="0 0 207.1 75.5" style="enable-background:new 0 0 207.1 75.5;" xml:space="preserve">
<style type="text/css">
	.st0{fill-rule:evenodd;clip-rule:evenodd;fill:#FFFFFF;}
	.st1{fill:#FFFFFF;}
	.st2{fill:none;}
	.st3{fill:#FDFDFD;}
</style>
<g>
	<g>
		<path class="st1" d="M82.6,58.9l0-4.6c2.9,0,4-0.1,4.5,3.4h0.3v-4l-7.9,0v0.5h1.4v10.2h-1.5V65h8.2v-4.2h-0.4
			c-0.4,3.2-1.2,3.6-3.5,3.6h-1v-5c0,0,0.4,0,0.6,0c1,0,1.6,0.6,1.8,2.3h0.4l0-5.1c0,0-0.4,0-0.4,0c0,0-0.1,2.2-1.8,2.2H82.6z"/>
		<path class="st1" d="M79.4,59.1h-4.5v0.5h1.5v3.7c-0.3,0.9-1.6,1.3-2,1.3c-2.9,0-2.7-4.2-2.7-5.3c0-1-0.1-5.3,2.7-5.3
			c1.9,0,3,1.9,3.4,3.7h0.3c0-0.7,0-4.1,0-4.1c0,0-1.3,1-1.3,0.9c0,0-0.6-0.9-2.3-0.9c-3.4,0-4.6,3.4-4.6,5.7c0,2.1,1,5.8,4.6,5.8
			c1.1,0,1.9-0.6,2.3-1.2c0,0,1.4,1.1,1.4,1.1v-5.4h1.2V59.1z"/>
		<path class="st1" d="M131.6,60.8c-0.4,3.2-1.2,3.6-3.5,3.6H128V54.2h1.4v-0.6h-4.7v0.6h1.4l0,0v10.2h-1.1l-4.2-11.1h-0.6
			c0,0-3.5,10-3.5,10.1c0,0-0.3,0.9-0.8,1c-0.5,0-0.5-0.2-0.5-0.3v-1.9c0-0.5,0-1.7-0.6-2.2c-0.6-0.6-1.6-0.6-1.6-0.7
			c0,0,2.6-0.5,2.6-3c0-1.7-1.2-2.6-3.2-2.6h-5.6v0.5h1.4v10.2c0,0-1.4,0-1.4,0V65h4.6v-0.5c0,0-1.4,0-1.4,0v-4.9c0,0,1.8,0,1.9,0
			c3.3,0.3-0.6,5.5,3.8,5.5h2.8v-0.5c-0.2,0-1.2,0-1.2-0.7c0-0.5,0.7-2.3,0.7-2.3h3.8c0,0,1.2,3,1.2,3h-1.3V65H132v-4.2H131.6z
			 M112.1,59h-1.8v-4.7h2.3c1.4,0.2,1.4,1.8,1.4,2.3C114,57.8,113.5,59,112.1,59z M118.4,60.9l1.6-4.9l1.7,4.9H118.4z"/>
		<path class="st1" d="M101.5,54.2c2.9,0,4-0.1,4.5,3.4h0.3v-4H94.8v0.5h0.3c0.4,0,1.4,0,1.4,0.9h0v6.5l-5.4-7.9h-2.9v0.5h0.5
			c0.6,0,1.4,0,1.4,0.9v8.3c0,0.8-1.2,1.1-1.7,1.1h0V65h4v-0.4c-0.5,0-1.7-0.3-1.7-1.1l0-7.3c2.1,3.1,6.2,8.9,6.2,8.9H97v-9.9
			c0.1-0.9,1-0.9,1.4-0.9h1.3v10.2h-1.5V65h8.2v-4.2H106c-0.4,3.2-1.2,3.6-3.5,3.6h-1v-5c0,0,0.4,0,0.6,0c1,0,1.6,0.6,1.8,2.3h0.4
			l0-5.1c0,0-0.4,0-0.4,0c0,0-0.1,2.2-1.8,2.2h-0.6V54.2z"/>
		<polygon class="st1" points="137.2,54.2 137.2,53.7 132.5,53.7 132.5,54.2 134,54.2 134,64.4 132.5,64.4 132.5,65 137.2,65 
			137.2,64.4 135.7,64.4 135.7,54.2 		"/>
	</g>
	<g>
		<path class="st1" d="M125,46.7l1.4-0.5l0,0c2-0.8,2.3-1.4,2.2-2.7V38c1.5,3.9,3,6.7,6,6.7c0.4,0,0.8,0,1.3-0.2l1.2-0.3l-0.8-0.9
			c-0.5-0.6-0.8-1-1-1.5c-0.1-0.2-0.2-0.4-0.4-0.7c-0.7-1.1-2.4-1.5-3.7-0.9c-0.6-1.2-1.2-2.8-2-4.7l-0.2-0.4
			c-0.1-0.3-0.3-0.6-0.4-0.9v0h0c-0.5-1-0.9-2.1-1.5-3c-0.5-0.9-1.1-1.6-1.7-2.3c-1.6-1.8-3.6-3-6.1-3.4c-1.7-0.3-3-0.3-4.5-0.4
			c-0.3,0-0.7,0-1-0.1c-0.7,0-2.2-0.2-3.6-0.3c-0.9-0.1-1.9-0.2-2.7-0.2c0.1-0.2,0.1-0.4,0.1-0.7c0-0.3,0-0.6-0.1-0.8h10
			c2.6,0,4.4-1.1,5.5-3.4c2.6,0,4.4-1.2,5.5-3.4h0.4c2.7,0,4.6-1.2,5.7-3.6l0.5-1h-33.8c-2.2,0-4.1,1.5-4.8,3.7l0,0.1
			c-0.6-1.6-1.6-3-3-3.8c-1.9-1.1-4-1.5-5.7-1c-0.6,0.2-1.1,0.4-1.6,0.7c-0.4,0.3-0.9,0.7-1.3,1.2c-0.4,0.6-0.9,1.2-1.2,1.9
			c-0.2,0.2-0.3,0.3-0.5,0.5l-0.4,0.8l0,0c-0.5,1.1-1.1,1.9-1.5,2.4c-0.5,0.5-0.5,1-0.4,1.4c0.1,0.4,0.3,0.7,0.5,0.9l0,0
			c-0.1,0.2-0.2,0.5-0.2,0.8c0,0.9,0.8,1.6,1.7,1.6c0.7,0,1.3-0.3,1.9-0.7c0.2-0.2,0.9-0.6,1.1-0.6c0.3,0,0.5,0.2,0.5,0.5
			c0,0.7-0.9,1.1-1.6,1.2l-1.4,0.1c-1,0.1-1.5,0.6-1.5,1.1c0,0.5,0.2,0.7,0.4,0.9l0.1,0.1l0.3,0.3l-1.5,2.3c-1-1-2.3-1.5-3.3-1.6
			c-0.7,0-1.3,0.2-1.7,0.6c-0.1,0.1-0.2,0.3-0.3,0.4c0,0,0,0,0,0c-1.2,0-2.1,0.6-2.5,1.3c-0.5,0.8-0.3,2.1,0.3,3.1l-3.7,1v17.6h67.4
			v-3.5H125z M133.7,41.9c0.1,0.2,0.2,0.4,0.4,0.6c0.1,0.2,0.3,0.5,0.4,0.7c-1.1-0.1-1.9-0.7-2.6-1.8
			C132.6,41.3,133.4,41.4,133.7,41.9z M119.1,26.9c2.2,0.4,4,1.3,5.3,2.9c0.3,0.3,0.6,0.7,0.8,1.1c-3.7-0.5-4.9-1-7-4.1
			C118.5,26.8,118.8,26.8,119.1,26.9z M117.5,21.6h-6.9c0.6-0.5,1.1-1.2,1.5-2h9.3C120.6,21,119.3,21.6,117.5,21.6z M123,18.3h-6.9
			c0.6-0.5,1.1-1.2,1.5-2.1h9.3C126.1,17.6,124.8,18.3,123,18.3z M123.4,13h9.3c-0.9,1.2-2.1,1.8-3.8,1.8H122
			C122.6,14.3,123.1,13.7,123.4,13z M85.9,13.4c0.2-0.3,0.6-0.6,1-0.9c0.3-0.2,0.8-0.4,1.2-0.5c0.7-0.2,1.4-0.2,2.3-0.1l-2.5,1.5
			c-0.3,0-0.6,0-0.9,0C86.5,13.4,86.1,13.4,85.9,13.4C85.8,13.4,85.8,13.4,85.9,13.4z M83,24.3c0-0.1,0.1-0.2,0.2-0.2l1.2,0
			c1.5-0.1,3-0.7,3.1-2.2c0-1-0.7-2-1.8-2c-0.6,0-1.2,0.4-1.9,0.8c-0.5,0.3-0.8,0.5-1.1,0.5c-0.2,0-0.3-0.1-0.3-0.2c0,0,0,0,0-0.1
			l0.8-1l-0.7-0.4c-0.1-0.1-0.4-0.3-0.4-0.4c0-0.1,0.1-0.2,0.1-0.2c0.3-0.3,0.6-0.7,0.9-1.2c0.2-0.3,0.3-0.4,0.6-0.4
			c0.3,0,0.6,0.3,0.6,0.6c0,0.2,0.2,0.4,0.5,0.4s0.4-0.2,0.6-0.4c0,0,0.7-0.6,0.3-0.9c-0.4-0.3-2.1,0.4-1.6-1.2l0.1-0.2
			c0.2-0.2,1-0.8,2.6-0.8c0.3,0,0.6,0,1,0.1l0.2,0l3.5-2.1c0,0.1,0,0.1,0,0.1l0,0l0,0c0.2,1.1-0.5,2.3-1.5,2.9L89.7,16l0.3,1.6
			c-0.9,0.3-1.5,1-1.5,1.9c0,0.3,0.1,0.6,0.2,1.1c0.1,0.5,0.2,1.1,0.2,1.6c0,1.6-2.3,2.7-4.2,2.7l0,0c-0.1,0-1.3-0.1-1.6-0.3
			C83,24.4,83,24.3,83,24.3z M74.4,29.4c0.3-0.4,0.9-0.8,1.7-0.6l0.6,0.1l0.2-0.6c0.1-0.2,0.1-0.3,0.2-0.4c0.2-0.2,0.4-0.2,0.7-0.2
			c0.8,0,1.9,0.6,2.8,1.5c0.3,0.3,0.6,0.7,0.8,1.1c0,0.1,0.1,0.2,0.2,0.2c0.1,0.1,0.1,0.2,0.1,0.2c0,0.1,0.5,0.7,0.4,0.7
			c0.3-0.4,0.6-0.8,0.9-1.2c0,0,0,0,0-0.1c-0.1-0.1-0.2-0.4-0.3-0.5c0,0,0-0.1-0.1-0.1c0,0,0,0,0,0c0,0,0-0.1-0.1-0.2
			c-0.1-0.2-0.2-0.4-0.3-0.5L84,26c0.5,0.1,0.8,0.1,1,0.1h0c2.6,0,5.2-1.5,5.2-4l0-0.1c0-0.7-0.2-1.3-0.3-1.8
			c-0.1-0.3-0.1-0.7-0.1-0.8c0-0.3,0.4-0.6,0.9-0.6h0.8l-0.4-2.2c1.2-0.9,1.9-2.3,1.9-3.6c1.3,1,2.1,2.6,2.3,4.4
			c0,0.5-0.1,1.2-0.2,2l-0.1,0.3l0,0c-0.3,1.2-0.7,2.5-1,3.1l-0.2,0.6l0.5,0.3c0.9,0.5,1.5,0.9,1.5,2.2c0,1.4-1.3,2.5-2.5,2.7
			L91.8,29l1.4,1c0.5,0.3,0.7,0.8,0.7,1.3c0,0.9-0.8,1.6-1.7,1.6h-0.5l-0.2,0.5c-0.5,1.7-1.1,2.5-2.9,2.7c0.1-0.5,0.1-1,0.1-1.7
			c0-0.2,0-0.6,0-0.8l-0.1-1.6l-1.1,1.1c-0.4,0.4-1,0.7-1.8,0.8v-1.4l-8-2.1L75,31.3C74.3,30.7,74.2,29.6,74.4,29.4z M72.1,46.7
			l5.7-1.5l5.7,1.5H72.1z M84.4,45.5l-6.6-1.7l-6.6,1.7V33.7l6.6-1.7l6.6,1.7V45.5z M87.4,43.2c-0.6,0.9-0.7,2-0.2,3.5h-1.4V35.4
			c0.5-0.1,1.1-0.2,1.6-0.5c0,0.5-0.1,0.9-0.2,1.4c0,0.1,0,0.2-0.1,0.4L87,37.6h0.8c1.2,0,2.2-0.2,2.9-0.6v4.7
			c0,0.1-0.1,0.2-0.2,0.2h-0.2C89,41.9,88,42.4,87.4,43.2z M102.6,43.5c-0.5,0.6-1,1.6-0.7,3.2h-8.5c0.9-0.1,1.6-0.3,2-0.8
			C96,45.4,96,44.6,96,44c0,0,0.1-0.2,0.5-0.4l0.7-0.3l-0.4-0.7c-0.7-1.1-0.4-3.6-0.1-4.9c0,0,0,0,0.1,0c2.9,0,4.8-0.6,6.8-1.2
			c0.5-0.2,1-0.3,1.6-0.5l0,0c0,0,0.6-0.2,1.4-0.4l2.8,4.6l0,0c0.3,0.4,0.3,0.7-0.2,1.2l-1.4,1.5l-2.3-0.4l0,0
			C104.4,42.3,103.3,42.7,102.6,43.5z M103.4,46.7c-0.3-1-0.1-1.8,0.3-2.3c0.4-0.5,1.1-0.6,1.6-0.6l2.7,0.5l0.1,0h0.4l1.9-2l0,0
			c0.3-0.4,1.3-1.5,0.3-2.9l-2.5-4.1c0.4-0.1,0.8-0.1,1.2-0.1l0,0c0,0,1.3,0,2.6,0.8c0.2,0.4,0.4,0.9,0.7,1.5
			c0.5,1.1,1.2,2.4,1.4,2.9c0.1,0.2,0.2,0.7-0.4,1.3l-4.8,5.1H103.4z M119.7,46.7h-9.1l3.9-4.1c0.8-0.8,1-1.8,0.7-2.7
			c-0.2-0.6-0.7-1.6-1.2-2.7c1.5,0.7,3.9,1.4,8.7,1.7c0.6,0,0.7,0.2,0.8,0.8l0.2,2.1l-2.5,0.6c-0.8,0.2-1.5,0.7-1.8,1.5
			C119.1,44.7,119.2,45.7,119.7,46.7z M120.7,44.3c0.1-0.4,0.4-0.6,0.8-0.6l3.7-0.8l-0.3-3.3l0-0.1c-0.1-0.4-0.4-1.8-2.1-1.9
			c-6.7-0.5-8.2-1.5-9.8-2.6c0,0,0,0,0,0l0,0l-0.1-0.1c-1.7-1.1-3.5-1.1-3.6-1.1c-1.9,0-4.3,0.7-4.5,0.8c-0.6,0.2-1.1,0.3-1.6,0.5
			c-2.1,0.7-3.9,1.3-6.9,1.2l-0.6,0l-0.1,0.5c-0.1,0.4-1,3.8-0.1,5.9c-0.7,0.6-0.7,1.2-0.7,1.3c0,0.7-0.1,0.9-0.2,1
			c-0.3,0.4-1.5,0.4-2.5,0.4c0,0,0,0,0,0h-0.4l-0.2,0.3c-0.6,0.8-1.9,1-2.7,0.8c-0.4-1.1-0.4-2,0-2.5c0.4-0.6,1.3-0.7,1.7-0.7h0.2
			c0.9,0,1.6-0.7,1.6-1.6v-6c0.3-0.4,0.5-0.9,0.7-1.4c1.5-0.2,2.6-1.5,2.6-3c0-0.6-0.2-1.1-0.5-1.6c1.4-0.7,2.5-2,2.5-3.7
			s-0.9-2.5-1.7-3.1c0.2-0.7,0.6-1.8,0.9-3l1.2-4.2c0.5-1.6,1.9-2.7,3.5-2.7h20.6c-0.9,1.2-2.1,1.8-3.8,1.8h-12.5l-0.7,1.4H116
			c-0.9,1.4-2.2,2.1-4,2.1h-8.1l-0.7,1.4h7.2c-0.9,1.3-2.1,2-3.9,2h-4.4l-0.7,1.4h4.6c0,0.1,0.2,0.3,0.2,0.8c0,0.9-0.8,1.6-1.7,1.6
			c-0.3,0-0.6-0.1-1.1-0.3c-0.2-0.1-0.4-0.2-0.6-0.3l-1.1,1c0.2,0.1,0.4,0.2,0.6,0.3v0c0.9,0.4,1.4,0.6,2.2,0.6
			c0.9,0,1.6-0.4,2.2-0.9c0.8,0.1,2.1,0.2,3.3,0.3c1.5,0.1,2.9,0.2,3.6,0.3c0.4,0,0.7,0,1,0.1c0.6,0,1.2,0.1,1.7,0.1
			c2.8,4.6,4.3,5.2,9.7,5.8c0.4,0.7,0.7,1.4,1.1,2.2v8.9l0,0.1c0,0.4,0,0.5,0,0.6c-0.2,0.2-1,0.6-1.3,0.7l-4.6,1.7
			C120.7,45.8,120.5,44.9,120.7,44.3z"/>
		<polygon class="st1" points="82.9,35.5 78.5,34.4 78.5,35.8 82.9,37 		"/>
		<polygon class="st1" points="72.7,37 77.1,35.8 77.1,34.4 72.7,35.5 		"/>
		<polygon class="st1" points="72.7,39.9 77.1,38.7 77.1,37.3 72.7,38.4 		"/>
		<polygon class="st1" points="82.9,38.4 78.5,37.3 78.5,38.7 82.9,39.9 		"/>
		<polygon class="st1" points="82.9,41.3 78.5,40.2 78.5,41.6 82.9,42.8 		"/>
		<polygon class="st1" points="72.7,42.8 77.1,41.6 77.1,40.2 72.7,41.3 		"/>
	</g>
</g>
</svg>
