<?xml version="1.0" encoding="utf-8"?>
<!-- Generator: Adobe Illustrator 21.0.2, SVG Export Plug-In . SVG Version: 6.00 Build 0)  -->
<svg version="1.1" id="Livello_1" xmlns="http://www.w3.org/2000/svg" xmlns:xlink="http://www.w3.org/1999/xlink" x="0px" y="0px"
	 viewBox="0 0 207.1 75.5" style="enable-background:new 0 0 207.1 75.5;" xml:space="preserve">
<style type="text/css">
	.st0{fill-rule:evenodd;clip-rule:evenodd;fill:#FFFFFF;}
	.st1{fill:#FFFFFF;}
	.st2{fill:none;}
	.st3{fill:#FDFDFD;}
</style>
<g>
	<polygon class="st1" points="147.6,27.1 145.1,27.1 144.7,27.1 144.5,27.3 135.2,39.7 137.2,27.9 137.4,27.1 136.5,27.1 
		134.8,27.1 134.4,27.1 134.2,27.3 124.9,39.8 127,27.9 127.1,27.1 126.3,27.1 124.2,27.1 123.6,27.1 123.5,27.6 120.1,47.4 
		120,48.2 120.8,48.2 122.9,48.2 123.2,48.2 123.4,47.9 132.2,35.9 130.4,47.4 130.3,48.2 131.1,48.2 132.9,48.2 133.3,48.2 
		133.5,47.9 148.2,28.2 149,27.1 147.6,27.1 	"/>
	<path class="st1" d="M162.6,33c-1,0-1.7,0.2-2.3,0.4l0-0.2h-0.8h-2.2h-0.6l-0.1,0.6l-2.4,13.5l-0.1,0.8h0.8h2.2h0.6l0.1-0.6
		l1.5-8.9c0.6-2.1,2.7-2.1,2.8-2.1l0.6,0c0,0,0.1-0.6,0.1-0.6l0.4-2.3l0.1-0.8L162.6,33L162.6,33z"/>
	<polygon class="st1" points="167.5,28.7 165.3,28.7 164.7,28.7 164.6,29.3 161.4,47.3 161.3,48.1 162.1,48.1 164.3,48.1 
		164.9,48.1 165,47.6 168.2,29.5 168.3,28.7 167.5,28.7 	"/>
	<path class="st1" d="M153.8,34.8c-1.8-2.1-4.7-2-4.9-2c-6.8,0.5-7.6,7.6-7.6,7.6c-0.3,1.9-0.1,4.6,1.5,6.3c1,1.2,2.5,1.7,4.3,1.7
		c6.5-0.3,7.7-6.7,7.7-6.8C155.4,38.7,155.1,36.4,153.8,34.8L153.8,34.8z M151.6,40.4c-1,4.3-3.9,4.3-4.1,4.3c-1,0-1.8-0.3-2.2-0.8
		c-0.9-1-0.7-2.7-0.7-2.9c0,0,0,0,0,0l0-0.1c0,0,0,0,0,0l0,0c0,0,0,0,0,0c1-4.5,4.1-4.3,4.2-4.3c1.1,0.1,1.8,0.5,2.3,1.1
		C151.9,38.8,151.6,40.4,151.6,40.4L151.6,40.4z"/>
	<path class="st1" d="M181.6,29h-2.2h-0.6l-0.1,0.6l-0.7,4.3c-1.6-1.2-3.5-1.1-3.5-1.1c-6.5,0-7.6,7.5-7.6,7.6
		c-0.4,2.4,0.1,4.7,1.4,6.2c1,1.2,2.5,1.9,4.3,1.9c1.1,0,2.1-0.2,3-0.7l-0.1,0.4h0.8h2.2h0.6l0.1-0.6l3.1-17.8l0.1-0.8H181.6
		L181.6,29z M177.1,40.4c-0.1,0.6-0.3,1.1-0.6,1.6c-1.2,2.7-3.4,2.6-3.5,2.6c-1,0-1.7-0.3-2.2-0.8c-0.9-1-0.7-2.7-0.7-2.9
		c1-4.5,4.1-4.3,4.2-4.3c1.6,0.2,2.5,0.9,2.8,2.3C177.3,39.7,177.1,40.4,177.1,40.4L177.1,40.4z"/>
	<polygon class="st1" points="52.6,27.1 50.6,27.1 50.3,27.1 50.1,27.3 41.4,39 43.3,27.9 43.4,27.1 42.6,27.1 40.6,27.1 40.2,27.1 
		40,27.3 25.5,47.1 24.7,48.2 26,48.2 28.6,48.2 29,48.2 29.2,47.9 38.5,35.5 36.5,47.4 36.4,48.2 37.2,48.2 38.7,48.2 39.1,48.2 
		39.3,47.9 48.6,35.5 46.6,47.4 46.4,48.2 47.2,48.2 49.3,48.2 49.9,48.2 50,47.6 53.3,27.9 53.4,27.1 52.6,27.1 	"/>
	<path class="st1" d="M98.1,33.3h-2.2h-0.6l-0.1,0.6l0,0c-1.6-1.2-3.5-1.1-3.5-1.1c-6.5,0-7.6,7.5-7.6,7.6c-0.4,2.4,0.1,4.7,1.4,6.2
		c1,1.2,2.5,1.9,4.3,1.9c1.1,0,2.1-0.2,3-0.7l-0.1,0.4h0.8h2.2h0.6l0.1-0.6l1-5.9l0.1-0.3l1.3-7.3l0.1-0.8H98.1L98.1,33.3z
		 M94.4,40.4c-0.1,0.6-0.3,1.1-0.6,1.6c-1.2,2.7-3.4,2.6-3.5,2.6c-1,0-1.7-0.3-2.2-0.8c-0.9-1.1-0.7-2.9-0.6-2.9
		c1-4.5,4.1-4.3,4.2-4.3c1.6,0.2,2.5,0.9,2.8,2.3C94.6,39.7,94.4,40.4,94.4,40.4L94.4,40.4z"/>
	<path class="st1" d="M80.6,29h-2.2h-0.6l-0.1,0.6l-0.7,4.3c-1.6-1.2-3.5-1.1-3.5-1.1c-6.5,0-7.6,7.5-7.6,7.6
		c-0.4,2.4,0.1,4.7,1.4,6.2c1,1.2,2.5,1.9,4.3,1.9c1.1,0,2.1-0.2,3-0.7l-0.1,0.4h0.8h2.2h0.6l0.1-0.6l3.1-17.8l0.1-0.8H80.6L80.6,29
		z M76.1,40.4C76,41,75.8,41.5,75.6,42c-1.2,2.7-3.4,2.6-3.5,2.6c-1,0-1.8-0.3-2.2-0.8c-0.9-1-0.7-2.7-0.7-2.9c0,0,0,0,0,0l0-0.1
		c0,0,0,0,0,0l0,0c0,0,0,0,0,0c1-4.5,4.1-4.3,4.2-4.3c1.6,0.2,2.5,0.9,2.8,2.3C76.3,39.7,76.1,40.4,76.1,40.4L76.1,40.4z"/>
	<polygon class="st1" points="81.8,33.3 81.2,33.3 81.1,33.8 78.8,47.4 78.6,48.2 79.5,48.2 81.7,48.2 82.2,48.2 82.3,47.6 
		84.7,34.1 84.8,33.3 84,33.3 81.8,33.3 	"/>
	<polygon class="st1" points="84.7,29 82.5,29 81.9,29 81.8,29.5 81.5,31 81.3,31.8 82.2,31.8 84.4,31.8 85,31.8 85.1,31.3 
		85.4,29.8 85.5,29 84.7,29 	"/>
	<path class="st1" d="M63.7,34.5c-1.7-1.9-4.2-1.7-4.3-1.7c-6.5,0-7.6,7.5-7.6,7.6c-0.3,1.8-0.1,4.4,1.4,6.1c1,1.2,2.6,1.9,4.4,1.9
		c3.8,0,5.9-2.9,6.6-4.2l0.6-1h-1.2H61h-0.3l-0.2,0.3c-0.9,1.1-2.6,1.2-2.6,1.2c-0.9,0-1.6-0.3-2-0.7c-0.5-0.5-0.6-1.2-0.6-1.7h9.3
		h0.6l0.1-0.6C65.6,38.5,65.1,36.1,63.7,34.5L63.7,34.5z M56,38.6c0.4-0.8,1.4-2,3.2-2c0.9,0,1.6,0.2,2,0.7c0.4,0.4,0.5,0.9,0.6,1.3
		H56L56,38.6z"/>
	<path class="st1" d="M107,35.4c0.2-0.9,0.2-1.9,1.4-3.2c1.4-1.7,3.7-1.8,5.4-1.9c1.7-0.1,3.3,0.3,4.7,0.9c0.6,0.8,1.1,1.8,1.5,2.8
		c-1.6-1.4-5.2-3.1-8.3-2.4c-2,0.5-2.8,1.6-3.3,2.5c0,0,0.1-0.1,0.1-0.1c0.9-1.1,2.6-2.1,4.6-2.1c1.9-0.1,3.6,0.9,4.7,1.7
		c1,0.7,2,1.6,2.7,2.5c0.1,0.5,0.1,0.9,0.1,1.4c0,0.8-0.1,1.5-0.2,2.3c-0.6-1.9-1.6-3.5-2.8-4.7c-1.3-1.2-2.7-2-4.5-2.1
		c0,0-1.6,0-2.9,0.7c0.9-0.3,1.9-0.5,3.1-0.3c0.7,0.1,2.4,0.6,3.9,2.1c1.5,1.6,2.3,3.7,2.5,6.4c-0.5,1.1-1.3,2.2-2.1,3l0-0.1
		c0.5-2.1,0.6-4,0.2-5.5c-0.4-1.4-1.1-2.7-2.2-3.7c-1.1-1-2.6-1.4-3.4-1.3c0.3,0.1,0.7,0.2,1,0.3c0.9,0.4,2.4,1.3,3.5,3.3
		c1.5,2.9,0.1,6.6-0.7,8.3c-1,0.7-2.1,1.2-3.3,1.4l0.4-0.5c1.5-1.6,3.1-3.9,2.9-6.7l0,0c0-0.3-0.1-2.6-2.3-4.3
		c0.7,0.9,1.8,2.3,1.8,4.6c0,3.4-3.3,6.2-4.7,7.2l0,0c-0.2,0-0.4,0-0.6,0c-1,0-1.9-0.1-2.8-0.4l0.5-0.2c3.6-1.3,6.2-4.1,6.3-7
		c0.1-1-0.2-1.7-0.3-2.1c0.1,0.9,0.1,2.7-0.6,4c-0.7,1.5-1.9,2.6-3.5,3.4c-1.3,0.7-2.8,1.1-4.2,1.2c-0.9-0.5-1.8-1-2.5-1.7
		c2,0.2,5.6,0.3,8.3-2.1c1.1-1,1.4-2.2,1.6-3c-0.6,1.4-1.6,2.5-2.4,3c-1.2,0.8-2.4,1-2.5,1.1c-2,0.4-3.2,0.3-4.6,0
		c-0.7-0.1-1.3-0.3-1.9-0.6c-0.7-0.9-1.2-1.9-1.5-3c1.2,1,3.4,2.6,6.3,2.5c2.4-0.1,4-1.2,4.7-2c-0.4,0.3-0.8,0.4-1.2,0.6
		c-1.2,0.5-2.5,1.1-5,0.7c-2.2-0.4-4.1-2.2-5.2-3.5c-0.1-0.5-0.1-0.9-0.1-1.4c0-0.5,0-1,0.1-1.4c1.3,3.1,4.6,5.5,7.4,5.5
		c1,0,1.8-0.2,2.3-0.4c-1.5,0.3-2.9,0.2-4.1-0.3c-1.3-0.5-2.5-1.7-2.5-1.7c-0.1-0.1-0.1-0.1-0.2-0.2c-1.5-1.5-2-3.7-2.2-5.4
		c0.4-1,0.9-1.8,1.5-2.6c-0.3,2.3,0.1,5.2,1.4,7c1.3,1.8,3.4,2.5,4.4,2.5c-1-0.4-3.2-1.4-4.3-3.3c-0.7-1.4-1-2.9-0.9-4.6
		c0.1-1.1,0.4-2.2,0.7-3c1-0.9,2.2-1.6,3.6-2l-0.3,0.3c-1,1.1-2.9,3.4-2.6,6.3c0.3,3.2,2,4.3,2.7,4.7c-1.1-1-2.1-2.7-2.1-4.8
		c0-1.6,0.6-3.1,1.7-4.5c0.9-1.1,1.9-2,2.6-2.5c0.4-0.1,0.9-0.1,1.3-0.1c0.8,0,1.5,0.1,2.2,0.2l-0.7,0.3c-4,1.5-5.9,4.2-5.9,6.9
		c0,1.3,0.3,2,0.8,3c-0.3-0.9-0.5-2-0.4-3.3c0.2-1.5,1-2.6,1.9-3.5c1.5-1.4,3.7-2.3,6.6-2.5c1,0.5,1.9,1.1,2.7,1.8l-0.4,0
		c-1.1-0.1-2.7-0.3-4.7,0l-0.5,0.1C111.6,29.9,106.6,30.8,107,35.4L107,35.4z"/>
</g>
</svg>
