<?xml version="1.0" encoding="utf-8"?>
<!-- Generator: Adobe Illustrator 21.0.2, SVG Export Plug-In . SVG Version: 6.00 Build 0)  -->
<svg version="1.1" id="Livello_1" xmlns="http://www.w3.org/2000/svg" xmlns:xlink="http://www.w3.org/1999/xlink" x="0px" y="0px"
	 viewBox="0 0 207.1 75.5" style="enable-background:new 0 0 207.1 75.5;" xml:space="preserve">
<style type="text/css">
	.st0{fill-rule:evenodd;clip-rule:evenodd;fill:#FFFFFF;}
	.st1{fill:#FFFFFF;}
	.st2{fill:none;}
	.st3{fill:#FDFDFD;}
</style>
<g>
	<path class="st1" d="M65.3,50.6H64l-0.2-2.7H65L65.3,50.6z M141.8,50.6h1.3l0.2-2.7H142L141.8,50.6z M63,47.9h-1.3l0.2,2.7h1.3
		L63,47.9z M143.8,50.6h1.3l0.2-2.7H144L143.8,50.6z M71.7,51.3c0,0.9-0.7,1.7-1.6,1.8c0,0-0.1,0-0.1,0c-1,0-1.7-0.8-1.7-1.7
		c0,0,0,0,0,0v0c0-1,0.7-1.8,1.7-1.8C70.9,49.5,71.7,50.3,71.7,51.3C71.7,51.3,71.7,51.3,71.7,51.3L71.7,51.3 M66.3,51.3
		c0,1.9,1.5,3.4,3.6,3.4c2.1,0,3.6-1.5,3.6-3.5v0c0-1.9-1.5-3.4-3.6-3.4C67.9,47.8,66.3,49.4,66.3,51.3L66.3,51.3 M74.8,54.6h1.9
		v-2.4h3.2v-1.5h-3.2v-1.1h3.5V48h-5.4L74.8,54.6L74.8,54.6z M81.2,54.6h1.9v-2.4h3.2v-1.5h-3.2v-1.1h3.5V48h-5.4L81.2,54.6
		L81.2,54.6z M91.9,54.6h1.9v-5h2V48h-5.9v1.6h2L91.9,54.6L91.9,54.6z M97.1,54.6h1.9v-2.5h2.4v2.5h1.9V48h-1.9v2.5h-2.4V48h-1.9
		V54.6L97.1,54.6z M104.5,54.6h5.5V53h-3.6V52h3.2v-1.5h-3.2v-1h3.6V48h-5.4L104.5,54.6L104.5,54.6z M115.1,54.7h1.6l1.4-3.8
		l1.4,3.8h1.6l2.3-6.7h-1.9l-1.2,3.8l-1.3-3.9h-1.6l-1.3,3.9l-1.2-3.8h-2L115.1,54.7z M125.5,52l0.8-1.9L127,52H125.5L125.5,52z
		 M122.5,54.6h2l0.5-1.2h2.6l0.5,1.2h2l-2.9-6.7h-1.8L122.5,54.6z M131,54.6h5.1V53h-3.3v-5H131L131,54.6L131,54.6z M137.1,54.6h5.1
		V53H139v-5h-1.9L137.1,54.6L137.1,54.6z"/>
	<path class="st1" d="M134.2,31.3h-3.6c-0.4-0.9-0.7-1.6-2.8-1.6c-1.4,0-2,0.6-2,1.2c0,0.6,0.5,1.2,2.1,1.5l3.3,0.9
		c2.2,0.6,3.2,2.3,3.2,4.1c0,1-0.2,2.2-1.2,3.2c-0.7,0.7-1.8,1.7-5.4,1.7c-4.9,0-6.5-3.1-6.5-5h3.8c0.4,1.4,1.3,1.9,3.2,1.9
		c1.3,0,2.4-0.5,2.4-1.4c0-0.9-0.8-1.3-1.8-1.6l-2.6-0.7c-1.3-0.4-2.3-0.7-3-1.3c-1.9-1.6-1.8-4.6,0.3-6.1c1.2-0.9,2.4-1.3,4.3-1.3
		c2.2,0,3.5,0.6,4.5,1.3C133.1,28.6,134.2,30.1,134.2,31.3 M72.8,20.8c0,0.1,7.6,21.3,7.6,21.3H85l7-17.6h43.2l0.3-3.7H88.6
		l-5.8,14.6l-5.2-14.6L72.8,20.8 M110.2,34.4l5.6,7.6h3.5V27h-4.1v8.2l-5.1-8.2h-3.9v15.1h3.9V34.4L110.2,34.4z M135.6,41.3
		c0-0.4-0.4-0.8-0.8-0.8c-0.4,0-0.8,0.4-0.8,0.8s0.4,0.8,0.8,0.8C135.3,42.1,135.6,41.7,135.6,41.3
		C135.6,41.3,135.6,41.3,135.6,41.3L135.6,41.3z M135.5,41.3c0,0.4-0.3,0.7-0.7,0.7c-0.4,0-0.7-0.3-0.7-0.7c0-0.4,0.3-0.7,0.7-0.7
		C135.2,40.6,135.5,40.9,135.5,41.3C135.5,41.3,135.5,41.3,135.5,41.3L135.5,41.3z M135.2,41.1c0-0.2-0.1-0.3-0.3-0.3c0,0,0,0,0,0
		h-0.4v0.9h0.2v-0.3h0.1l0.2,0.3h0.2l-0.2-0.3C135.1,41.3,135.2,41.2,135.2,41.1L135.2,41.1z M135,41.1c0,0.1-0.1,0.1-0.1,0.1
		c0,0,0,0,0,0h-0.2V41h0.2C134.9,41,135,41,135,41.1C135,41.1,135,41.1,135,41.1L135,41.1z M88.7,42.1H93l0.8-2.4h5.7l0.8,2.4h4.3
		L99.2,27h-4.6L88.7,42.1z M95.1,37l1.7-5l1.7,5H95.1L95.1,37z"/>
</g>
</svg>
