<?xml version="1.0" encoding="UTF-8"?>
<svg width="121px" height="77px" viewBox="0 0 121 77" version="1.1" xmlns="http://www.w3.org/2000/svg" xmlns:xlink="http://www.w3.org/1999/xlink">
    <!-- Generator: Sketch 43.2 (39069) - http://www.bohemiancoding.com/sketch -->
    <title>Artboard</title>
    <desc>Created with Sketch.</desc>
    <defs>
        <filter x="-5.8%" y="-6.5%" width="111.6%" height="118.2%" filterUnits="objectBoundingBox" id="filter-1">
            <feOffset dx="0" dy="2" in="SourceAlpha" result="shadowOffsetOuter1"></feOffset>
            <feGaussianBlur stdDeviation="2" in="shadowOffsetOuter1" result="shadowBlurOuter1"></feGaussianBlur>
            <feColorMatrix values="0 0 0 0 0   0 0 0 0 0   0 0 0 0 0  0 0 0 0.5 0" type="matrix" in="shadowBlurOuter1" result="shadowMatrixOuter1"></feColorMatrix>
            <feMerge>
                <feMergeNode in="shadowMatrixOuter1"></feMergeNode>
                <feMergeNode in="SourceGraphic"></feMergeNode>
            </feMerge>
        </filter>
    </defs>
    <g id="Page-1" stroke="none" stroke-width="1" fill="none" fill-rule="evenodd">
        <g id="Artboard" fill-rule="nonzero" fill="#000000">
            <g id="img_245542" filter="url(#filter-1)">
                <path d="M102.083133,34.2252594 C102.107827,33.5091465 102.120173,32.8547674 102.120173,32.3362029 C102.120173,23.7181542 98.7618507,15.61867 92.6748908,9.51936328 C86.5755841,3.42005659 78.4760999,0.0740806481 69.8580512,0.0740806481 C63.1784461,0.0740806481 56.6099619,2.34588719 50.8687117,6.64256478 C46.9424374,9.58109716 43.6458485,13.3221699 41.2752678,17.4706862 C38.6700983,16.112541 35.780953,15.4087748 32.7930336,15.4087748 C28.002485,15.4087748 23.397138,17.6311943 19.8289201,21.6685896 C17.4459926,24.3601865 15.7544845,27.6320817 14.9272506,31.0397916 C10.8898553,32.6325255 7.28459706,35.3735095 4.67942761,38.8799935 C1.61742748,42.9667759 0,47.8314051 0,52.9429699 C0,65.91943 10.5564924,76.4759224 23.5329526,76.4759224 L23.5329526,76.4141885 L99.8854072,76.4141885 L99.8854072,76.4512289 C111.528416,76.4512289 120.998392,66.9812527 120.998392,55.3382441 C120.998392,44.4730824 112.651972,35.398203 102.083133,34.2252594 Z M100.724988,71.5372125 L100.724988,71.5372125 L22.0883799,71.5248658 C12.4825892,70.7840593 4.88932278,62.7339622 4.88932278,52.9306231 C4.88932278,44.8434857 9.98854072,37.6700096 17.6311943,35.1142272 C17.6558878,35.1018804 17.6805814,35.0895337 17.7052749,35.0771869 C18.4584282,34.8672917 19.0510733,34.2376062 19.1868879,33.4227191 C20.273404,26.8912753 25.9405736,20.2857508 32.7806868,20.2857508 C35.5834046,20.2857508 38.2626548,21.1376783 40.5468081,22.742759 C40.76905,22.9526541 41.0406791,23.125509 41.3616952,23.23663 L41.3616952,23.23663 C42.5593323,23.6811138 43.892784,23.125509 44.4236953,21.9649122 C49.0660826,11.9763714 59.4250266,4.93870987 69.8580512,4.93870987 C84.9581566,4.93870987 97.2308507,17.2237507 97.2308507,32.3115094 C97.2308507,33.3362917 97.1814636,34.9413724 97.0826894,36.3489047 C96.9962619,37.6082757 97.8728829,38.7194854 99.1199072,38.9293806 L99.1199072,38.9293806 C99.3421491,38.9664209 99.5520443,38.9664209 99.7619395,38.9540741 L99.7619395,38.9664209 C108.713351,38.9664209 116.109069,46.3621389 116.109069,55.3135506 C116.109069,64.00568 109.281303,71.1050754 100.724988,71.5372125 Z" id="Shape"></path>
            </g>
        </g>
    </g>
</svg>