<?xml version="1.0" encoding="UTF-8"?>
<svg width="177px" height="11px" viewBox="0 0 177 11" version="1.1" xmlns="http://www.w3.org/2000/svg" xmlns:xlink="http://www.w3.org/1999/xlink">
    <!-- Generator: Sketch 42 (36781) - http://www.bohemiancoding.com/sketch -->
    <title>Artboard</title>
    <desc>Created with Sketch.</desc>
    <defs></defs>
    <g id="Page-1" stroke="none" stroke-width="1" fill="none" fill-rule="evenodd">
        <g id="Artboard" fill="#000000">
            <path d="M2.98535156,8.58496094 C3.33170587,8.58496094 3.62906915,8.55078125 3.87744141,8.48242188 C4.12581366,8.4140625 4.32975233,8.31835938 4.48925781,8.1953125 C4.64876288,8.07226562 4.76611328,7.92643222 4.84130859,7.7578125 C4.91650391,7.58919278 4.95410156,7.40462247 4.95410156,7.20410156 C4.95410156,7.00358066 4.91878241,6.82128906 4.84814453,6.65722656 C4.77750665,6.49316406 4.66471368,6.35302734 4.50976562,6.23681641 C4.35481757,6.12060547 4.15201795,6.03059882 3.90136719,5.96679688 C3.65071601,5.90299493 3.34537733,5.87109375 2.98535156,5.87109375 L1.99414062,5.87109375 L1.99414062,8.58496094 L2.98535156,8.58496094 Z M2.91699219,4.45605469 C3.21777344,4.45605469 3.4763996,4.42415351 3.69287109,4.36035156 C3.90934259,4.29654962 4.08707696,4.20882189 4.22607422,4.09716797 C4.36507148,3.98551446 4.46875,3.85221368 4.53710938,3.69726562 C4.60546875,3.54231757 4.63964844,3.37369764 4.63964844,3.19140625 C4.63964844,3.00911444 4.60888672,2.84505153 4.54736328,2.69921875 C4.48583984,2.55338514 4.38671875,2.42805934 4.25,2.32324219 C4.11328125,2.2184242 3.93668634,2.137532 3.72021484,2.08056641 C3.50374335,2.02359998 3.24283826,1.99511719 2.9375,1.99511719 L1.99414062,1.99511719 L1.99414062,4.45605469 L2.91699219,4.45605469 Z M0.127929688,1.44824219 C0.127929688,1.17480469 0.203125,0.96175158 0.353515625,0.809082031 C0.50390625,0.656412482 0.718098924,0.580078125 0.99609375,0.580078125 L3.02636719,0.580078125 C3.65527344,0.580078125 4.19303399,0.639322639 4.63964844,0.7578125 C5.08626288,0.876302361 5.45198554,1.04036486 5.73681641,1.25 C6.02164686,1.45963514 6.22900391,1.70800781 6.35888672,1.99511719 C6.48876953,2.28222656 6.55371094,2.59440076 6.55371094,2.93164062 C6.55371094,3.18684882 6.51839221,3.42382812 6.44775391,3.64257812 C6.37711561,3.86132812 6.27685547,4.05843085 6.14697266,4.23388672 C6.01708984,4.40934259 5.85986328,4.56201172 5.67529297,4.69189453 C5.49072266,4.82177734 5.28222656,4.92545587 5.04980469,5.00292969 L5.04980469,5.0234375 C5.32779962,5.07356757 5.58072931,5.15673828 5.80859375,5.27294922 C6.03645861,5.38916016 6.23014379,5.53613281 6.38964844,5.71386719 C6.54915392,5.89160156 6.6722008,6.09781915 6.75878906,6.33251953 C6.84537733,6.56722012 6.88867188,6.828125 6.88867188,7.11523437 C6.88867188,7.52994785 6.81005859,7.91276035 6.65283203,8.26367188 C6.49560547,8.6145833 6.25406873,8.91878252 5.92822266,9.17626953 C5.60237616,9.43375655 5.18766248,9.6354167 4.68408203,9.78125 C4.18050116,9.9270833 3.58235663,10 2.88964844,10 L0.99609375,10 C0.718098924,10 0.50390625,9.92366533 0.353515625,9.77099609 C0.203125,9.61832675 0.127929688,9.40527344 0.127929688,9.13183594 L0.127929688,1.44824219 Z M11.5429688,1.37304688 L11.5429688,6.34277344 C11.5429688,6.96712226 11.625,7.51627597 11.7890625,7.99023438 C11.953125,8.46419278 12.1935222,8.8595378 12.5102539,9.17626953 C12.8269857,9.49300137 13.2200522,9.73225918 13.6894531,9.89404297 C14.1588543,10.0558269 14.7011719,10.1367188 15.3164062,10.1367188 C15.9270836,10.1367188 16.4728191,10.0524089 16.9536133,9.88378906 C17.4344074,9.71516934 17.8400062,9.46337891 18.1704102,9.12841797 C18.5008141,8.79345714 18.7537438,8.37532559 18.9291992,7.87402344 C19.1046547,7.37272149 19.1923828,6.78938809 19.1923828,6.12402344 L19.1923828,1.37304688 C19.1923828,1.10416722 19.1137695,0.896810174 18.956543,0.750976562 C18.7993164,0.605142951 18.5589195,0.532226562 18.2353516,0.532226562 C17.9117836,0.532226562 17.6725258,0.605142951 17.5175781,0.750976562 C17.3626301,0.89680934 17.2851562,1.10416639 17.2851562,1.37304688 L17.2851562,6.31542969 C17.2851562,6.71191406 17.2384441,7.05371094 17.1450195,7.34082031 C17.0515949,7.62792969 16.9217121,7.86604825 16.7553711,8.05517578 C16.5890297,8.24430352 16.3919269,8.38444014 16.1640625,8.47558594 C15.9361976,8.56673174 15.6878254,8.61230469 15.4189453,8.61230469 C15.1318359,8.61230469 14.8675129,8.56445312 14.6259766,8.46875 C14.3844402,8.37304688 14.1759441,8.22265625 14.0004883,8.01757812 C13.8250326,7.8125 13.6894531,7.55159512 13.59375,7.23486328 C13.4980469,6.91813144 13.4501953,6.53873691 13.4501953,6.09667969 L13.4501953,1.37304688 C13.4501953,1.10416722 13.3727213,0.896810174 13.2177734,0.750976562 C13.0628256,0.605142951 12.8235678,0.532226562 12.5,0.532226562 C12.1764323,0.532226562 11.9360352,0.605142951 11.7788086,0.750976562 C11.621582,0.89680934 11.5429688,1.10416639 11.5429688,1.37304688 Z M26.2392578,9.20703125 C26.2392578,9.47591142 26.1629232,9.68326816 26.0102539,9.82910156 C25.8575846,9.97493486 25.6217447,10.0478516 25.3027344,10.0478516 C24.9791667,10.0478516 24.7421875,9.97493486 24.5917969,9.82910156 C24.4414062,9.68326816 24.3662109,9.47591142 24.3662109,9.20703125 L24.3662109,1.44824219 C24.3662109,1.17480469 24.4414062,0.96175158 24.5917969,0.809082031 C24.7421875,0.656412482 24.9563802,0.580078125 25.234375,0.580078125 L27.2441406,0.580078125 C27.8867188,0.580078125 28.4415691,0.646158576 28.9086914,0.778320312 C29.3758137,0.910482049 29.7609047,1.09619141 30.0639648,1.33544922 C30.367025,1.57470703 30.590332,1.85839844 30.7338867,2.18652344 C30.8774414,2.51464844 30.9492188,2.87239611 30.9492188,3.25976562 C30.9492188,3.58333319 30.9036461,3.88183594 30.8125,4.15527344 C30.7213539,4.42871094 30.59375,4.67480469 30.4296875,4.89355469 C30.265625,5.11230469 30.0673828,5.30143243 29.8349609,5.4609375 C29.6025391,5.62044257 29.3450519,5.74804688 29.0625,5.84375 L30.8261719,8.55761719 C30.9036461,8.67610674 30.9594727,8.7786458 30.9936523,8.86523438 C31.027832,8.95182295 31.0449219,9.04296875 31.0449219,9.13867188 C31.0449219,9.2708334 31.0141602,9.39274092 30.9526367,9.50439453 C30.8911133,9.61604825 30.8102211,9.71402998 30.7099609,9.79833984 C30.6097008,9.8826497 30.4946289,9.94873047 30.3647461,9.99658203 C30.2348633,10.0444336 30.103841,10.0683594 29.9716797,10.0683594 C29.8395184,10.0683594 29.7244469,10.0467122 29.6264648,10.003418 C29.5284832,9.96012373 29.443034,9.90201826 29.3701172,9.82910156 L29.2915039,9.74707031 C29.2664387,9.71972656 29.2436523,9.6901042 29.2231445,9.65820312 L29.1582031,9.55566406 L29.0830078,9.43261719 L27.1826172,6.2265625 L26.2392578,6.2265625 L26.2392578,9.20703125 Z M27.203125,4.77734375 C27.5084637,4.77734375 27.7750652,4.74316406 28.0029297,4.67480469 C28.2307941,4.60644531 28.4199219,4.51074219 28.5703125,4.38769531 C28.7207031,4.26464844 28.8323566,4.11653632 28.9052734,3.94335938 C28.9781902,3.77018243 29.0146484,3.58105469 29.0146484,3.37597656 C29.0146484,3.17089844 28.9804688,2.98518908 28.9121094,2.81884766 C28.84375,2.65250623 28.7355145,2.51123047 28.5874023,2.39501953 C28.4392902,2.27880859 28.2467445,2.18880236 28.0097656,2.125 C27.7727863,2.06119764 27.4856769,2.02929688 27.1484375,2.02929688 L26.2392578,2.02929688 L26.2392578,4.77734375 L27.203125,4.77734375 Z M38.5703125,8.58496094 C38.9166668,8.58496094 39.2140301,8.55078125 39.4624023,8.48242188 C39.7107746,8.4140625 39.9147133,8.31835938 40.0742188,8.1953125 C40.2337238,8.07226562 40.3510742,7.92643222 40.4262695,7.7578125 C40.5014648,7.58919278 40.5390625,7.40462247 40.5390625,7.20410156 C40.5390625,7.00358066 40.5037434,6.82128906 40.4331055,6.65722656 C40.3624676,6.49316406 40.2496746,6.35302734 40.0947266,6.23681641 C39.9397785,6.12060547 39.7369789,6.03059882 39.4863281,5.96679688 C39.2356769,5.90299493 38.9303383,5.87109375 38.5703125,5.87109375 L37.5791016,5.87109375 L37.5791016,8.58496094 L38.5703125,8.58496094 Z M38.5019531,4.45605469 C38.8027344,4.45605469 39.0613605,4.42415351 39.277832,4.36035156 C39.4943035,4.29654962 39.6720379,4.20882189 39.8110352,4.09716797 C39.9500324,3.98551446 40.0537109,3.85221368 40.1220703,3.69726562 C40.1904297,3.54231757 40.2246094,3.37369764 40.2246094,3.19140625 C40.2246094,3.00911444 40.1938477,2.84505153 40.1323242,2.69921875 C40.0708008,2.55338514 39.9716797,2.42805934 39.8349609,2.32324219 C39.6982422,2.2184242 39.5216473,2.137532 39.3051758,2.08056641 C39.0887043,2.02359998 38.8277992,1.99511719 38.5224609,1.99511719 L37.5791016,1.99511719 L37.5791016,4.45605469 L38.5019531,4.45605469 Z M35.7128906,1.44824219 C35.7128906,1.17480469 35.7880859,0.96175158 35.9384766,0.809082031 C36.0888672,0.656412482 36.3030599,0.580078125 36.5810547,0.580078125 L38.6113281,0.580078125 C39.2402344,0.580078125 39.7779949,0.639322639 40.2246094,0.7578125 C40.6712238,0.876302361 41.0369465,1.04036486 41.3217773,1.25 C41.6066078,1.45963514 41.8139648,1.70800781 41.9438477,1.99511719 C42.0737305,2.28222656 42.1386719,2.59440076 42.1386719,2.93164062 C42.1386719,3.18684882 42.1033531,3.42382812 42.0327148,3.64257812 C41.9620765,3.86132812 41.8618164,4.05843085 41.7319336,4.23388672 C41.6020508,4.40934259 41.4448242,4.56201172 41.2602539,4.69189453 C41.0756836,4.82177734 40.8671875,4.92545587 40.6347656,5.00292969 L40.6347656,5.0234375 C40.9127606,5.07356757 41.1656902,5.15673828 41.3935547,5.27294922 C41.6214195,5.38916016 41.8151047,5.53613281 41.9746094,5.71386719 C42.1341149,5.89160156 42.2571617,6.09781915 42.34375,6.33251953 C42.4303383,6.56722012 42.4736328,6.828125 42.4736328,7.11523437 C42.4736328,7.52994785 42.3950195,7.91276035 42.237793,8.26367188 C42.0805664,8.6145833 41.8390297,8.91878252 41.5131836,9.17626953 C41.1873371,9.43375655 40.7726234,9.6354167 40.269043,9.78125 C39.7654621,9.9270833 39.1673176,10 38.4746094,10 L36.5810547,10 C36.3030599,10 36.0888672,9.92366533 35.9384766,9.77099609 C35.7880859,9.61832675 35.7128906,9.40527344 35.7128906,9.13183594 L35.7128906,1.44824219 Z M48.2626953,9.19335938 C48.212565,9.35286465 48.1647135,9.48616543 48.1191406,9.59326172 C48.0735678,9.70035811 48.0166016,9.78808594 47.9482422,9.85644531 C47.88444,9.92024736 47.8024088,9.97151689 47.7021484,10.0102539 C47.601888,10.0489909 47.485677,10.0683594 47.3535156,10.0683594 C47.2350261,10.0683594 47.1176758,10.0501302 47.0014648,10.0136719 C46.8852539,9.97721358 46.7792969,9.92480469 46.6835938,9.85644531 C46.5878906,9.78808594 46.5104166,9.70377608 46.4511719,9.60351562 C46.391927,9.50325528 46.3623047,9.38932295 46.3623047,9.26171875 C46.3623047,9.18880215 46.3725586,9.11588545 46.3930664,9.04296875 C46.4135742,8.97005205 46.4488932,8.85839844 46.4990234,8.70800781 L48.8984375,1.81054688 L49.0146484,1.51318359 C49.0511068,1.42431641 49.0898438,1.3434242 49.1308594,1.27050781 C49.171875,1.19759142 49.2140299,1.13151097 49.2573242,1.07226562 C49.3006186,1.01302111 49.3496094,0.956054688 49.4042969,0.901367188 C49.5227865,0.782877326 49.6697594,0.692871094 49.8452148,0.631347656 C50.0206707,0.569824219 50.2382812,0.5390625 50.4980469,0.5390625 C50.7578125,0.5390625 50.975423,0.569824219 51.1508789,0.631347656 C51.3263348,0.692871094 51.4733074,0.782877326 51.5917969,0.901367188 C51.6464844,0.956054688 51.6954754,1.01302111 51.7387695,1.07226562 C51.7820637,1.13151014 51.8242188,1.19759059 51.8652344,1.27050781 C51.90625,1.3434242 51.9449871,1.42431641 51.9814453,1.51318359 L52.0976562,1.81054688 L54.5039062,8.67382812 C54.5585938,8.82877608 54.5939125,8.9427084 54.6098633,9.015625 C54.6258141,9.0885417 54.6337891,9.15690108 54.6337891,9.22070312 C54.6337891,9.3619791 54.6018883,9.48502597 54.5380859,9.58984375 C54.4742836,9.69466153 54.3922523,9.78238925 54.2919922,9.85302734 C54.191732,9.92366533 54.0800781,9.97721358 53.9570312,10.0136719 C53.8339844,10.0501302 53.7132164,10.0683594 53.5947266,10.0683594 C53.4625648,10.0683594 53.344075,10.0478516 53.2392578,10.0068359 C53.1344398,9.96582031 53.0455726,9.9088542 52.9726562,9.8359375 C52.9042969,9.76757812 52.8484699,9.68326826 52.8051758,9.58300781 C52.7618816,9.48274747 52.7151695,9.35514326 52.6650391,9.20019531 L52.1796875,7.78515625 L48.7207031,7.78515625 L48.2626953,9.19335938 Z M51.7285156,6.32910156 L50.8330078,3.63574219 C50.7692059,3.44889337 50.7122399,3.27457696 50.6621094,3.11279297 L50.5322266,2.67871094 C50.4866535,2.53287733 50.4479164,2.39615858 50.4160156,2.26855469 L50.3886719,2.26855469 C50.3567707,2.39615858 50.3203125,2.53287733 50.2792969,2.67871094 L50.15625,3.11279297 C50.1106769,3.27457696 50.058268,3.44889337 49.9990234,3.63574219 L49.1445312,6.32910156 L51.7285156,6.32910156 Z M59.0488281,1.83105469 L59.0488281,9.2890625 C59.0488281,9.5260417 59.1194661,9.71175137 59.2607422,9.84619141 C59.4020183,9.98063155 59.6162109,10.0478516 59.9033203,10.0478516 C60.1904297,10.0478516 60.4080404,9.97949219 60.5561523,9.84277344 C60.7042645,9.70605469 60.7737631,9.52148438 60.7646484,9.2890625 L60.6826172,4.51757812 C60.6735025,4.30338514 60.6632486,4.09602851 60.6518555,3.89550781 C60.6404623,3.69498712 60.6279297,3.51725274 60.6142578,3.36230469 C60.5960287,3.18001288 60.5800781,3.00911444 60.5664062,2.84960938 L60.59375,2.8359375 C60.6575519,2.97721326 60.72819,3.12304688 60.8056641,3.2734375 C60.8694662,3.40559924 60.9458008,3.5548504 61.034668,3.72119141 C61.1235352,3.88753283 61.2203775,4.05729181 61.3251953,4.23046875 L64.2714844,9.03613281 C64.3671875,9.19563799 64.4617512,9.33805332 64.5551758,9.46337891 C64.6486,9.5887045 64.7522785,9.69466153 64.8662109,9.78125 C64.980143,9.86783858 65.1100258,9.93391924 65.2558594,9.97949219 C65.401693,10.0250651 65.5771484,10.0478516 65.7822266,10.0478516 C66.2288414,10.0478516 66.5603844,9.94075517 66.7768555,9.7265625 C66.9933265,9.51236972 67.1015625,9.18424472 67.1015625,8.7421875 L67.1015625,1.29101562 C67.1015625,1.0540359 67.0309242,0.868326545 66.8896484,0.733886719 C66.7483727,0.599446893 66.5341797,0.532226562 66.2470703,0.532226562 C65.9599609,0.532226562 65.74235,0.600585938 65.5942383,0.737304688 C65.4461257,0.874023438 65.3766273,1.05859375 65.3857422,1.29101562 L65.4677734,6.0625 C65.4723305,6.28125 65.4814453,6.48974609 65.4951172,6.68798828 C65.5087891,6.88623047 65.5224609,7.06282559 65.5361328,7.21777344 C65.5543617,7.40006503 65.5703125,7.57096347 65.5839844,7.73046875 L65.5498047,7.74414062 C65.4860032,7.60286465 65.4153649,7.45703125 65.3378906,7.30664062 L65.1123047,6.85888672 C65.0257164,6.69254571 64.9300133,6.52278653 64.8251953,6.34960938 L61.8720703,1.54394531 C61.7763672,1.38444066 61.6818035,1.24202502 61.5883789,1.11669922 C61.4949543,0.99137342 61.391276,0.885416389 61.2773438,0.798828125 C61.1634115,0.712239027 61.034668,0.646158576 60.8911133,0.600585938 C60.7475586,0.555013299 60.5732422,0.532226562 60.3681641,0.532226562 C59.9215496,0.532226562 59.5900065,0.639322639 59.3735352,0.853515625 C59.1570638,1.06770861 59.0488281,1.39355469 59.0488281,1.83105469 Z M77.4296875,1.04492188 L74.2646484,4.92089844 L74.2646484,1.37304688 C74.2646484,1.10416722 74.1871744,0.896810174 74.0322266,0.750976562 C73.8772787,0.605142951 73.6357422,0.532226562 73.3076172,0.532226562 C72.9840496,0.532226562 72.7447917,0.605142951 72.5898438,0.750976562 C72.4348958,0.89680934 72.3574219,1.10416639 72.3574219,1.37304688 L72.3574219,9.20703125 C72.3574219,9.47591142 72.4348958,9.68326816 72.5898438,9.82910156 C72.7447916,9.97493486 72.9840494,10.0478516 73.3076172,10.0478516 C73.6357422,10.0478516 73.8772787,9.97493486 74.0322266,9.82910156 C74.1871744,9.68326816 74.2646484,9.47591142 74.2646484,9.20703125 L74.2646484,5.50878906 L77.3955078,9.49414062 L77.5527344,9.69238281 C77.59375,9.74251309 77.6347656,9.78808594 77.6757812,9.82910156 C77.7486981,9.90201826 77.8364258,9.96012373 77.9389648,10.003418 C78.0415039,10.0467122 78.1542969,10.0683594 78.2773438,10.0683594 C78.4095055,10.0683594 78.5393883,10.042155 78.6669922,9.98974609 C78.7945969,9.9373372 78.9085289,9.86669922 79.0087891,9.77783203 C79.1090492,9.68896484 79.1899414,9.58642578 79.2514648,9.47021484 C79.3129883,9.35400391 79.34375,9.22981778 79.34375,9.09765625 C79.34375,9.02929688 79.3346351,8.96435547 79.3164062,8.90283203 C79.2981774,8.84130859 79.2753906,8.78320312 79.2480469,8.72851562 C79.2207031,8.67382812 79.1888024,8.62141924 79.1523438,8.57128906 C79.115886,8.52115889 79.0794274,8.47558594 79.0429688,8.43457031 L76.2607422,5.05078125 L79.0429688,1.9609375 C79.129557,1.86523438 79.1899414,1.77294922 79.2241211,1.68408203 C79.2583008,1.59521484 79.2753906,1.50292969 79.2753906,1.40722656 C79.2753906,1.28417969 79.2469078,1.16910779 79.1899414,1.06201172 C79.132975,0.954915643 79.0577797,0.860351562 78.9643555,0.778320312 C78.8709313,0.696289062 78.7626953,0.631347656 78.6396484,0.583496094 C78.5166016,0.535644531 78.3912758,0.51171875 78.2636719,0.51171875 C78.140625,0.51171875 78.0301105,0.535644531 77.9321289,0.583496094 C77.8341473,0.631347656 77.7486981,0.691732049 77.6757812,0.764648438 C77.6393231,0.801106215 77.6017254,0.840982795 77.5629883,0.884277344 C77.5242512,0.927571058 77.4798176,0.981119514 77.4296875,1.04492188 Z M91.6054688,9.11132812 L91.6054688,5.59082031 L94.8525391,5.59082031 C94.9847004,5.59082031 95.0872394,5.55322266 95.1601562,5.47802734 C95.2330731,5.40283203 95.2695312,5.29231757 95.2695312,5.14648438 C95.2695312,5.00065118 95.2330731,4.89013672 95.1601562,4.81494141 C95.0872394,4.73974609 94.9847004,4.70214844 94.8525391,4.70214844 L91.6054688,4.70214844 L91.6054688,1.46875 L95.3583984,1.46875 C95.4905598,1.46875 95.5930988,1.4300133 95.6660156,1.35253906 C95.7389324,1.27506566 95.7753906,1.16341174 95.7753906,1.01757812 C95.7753906,0.876302361 95.7389324,0.768066406 95.6660156,0.692871094 C95.5930988,0.617675781 95.4905598,0.580078125 95.3583984,0.580078125 L91.0859375,0.580078125 C90.9173177,0.580078125 90.7885742,0.624511719 90.699707,0.713378906 C90.6108398,0.802246094 90.5664062,0.930989861 90.5664062,1.09960938 L90.5664062,9.48046875 C90.5664062,9.64908847 90.6108398,9.77783203 90.699707,9.86669922 C90.7885742,9.95556641 90.9173177,10 91.0859375,10 L95.3857422,10 C95.5179035,10 95.6204426,9.96240234 95.6933594,9.88720703 C95.7662762,9.81201172 95.8027344,9.70149747 95.8027344,9.55566406 C95.8027344,9.40983066 95.7662762,9.29931641 95.6933594,9.22412109 C95.6204426,9.14892578 95.5179035,9.11132812 95.3857422,9.11132812 L91.6054688,9.11132812 Z M100.942383,9.48046875 C100.892253,9.62174472 100.852376,9.72542325 100.822754,9.79150391 C100.793132,9.85758467 100.757812,9.91113281 100.716797,9.95214844 C100.684896,9.98404951 100.641602,10.0102539 100.586914,10.0307617 C100.532227,10.0512695 100.470703,10.0615234 100.402344,10.0615234 C100.338542,10.0615234 100.27474,10.0512695 100.210938,10.0307617 C100.147135,10.0102539 100.08903,9.98063155 100.036621,9.94189453 C99.9842123,9.90315752 99.940918,9.85530595 99.9067383,9.79833984 C99.8725586,9.74137373 99.8554688,9.67643233 99.8554688,9.60351562 C99.8554688,9.55794278 99.8611653,9.51009122 99.8725586,9.45996094 C99.8839518,9.40983066 99.9147135,9.31868486 99.9648438,9.18652344 L102.863281,1.140625 C102.88151,1.09049451 102.899739,1.04492188 102.917969,1.00390625 C102.936198,0.962890625 102.955566,0.925292969 102.976074,0.891113281 C102.996582,0.856933594 103.01709,0.826171875 103.037598,0.798828125 C103.058105,0.771484375 103.082031,0.744140625 103.109375,0.716796875 C103.16862,0.657552361 103.239258,0.613118768 103.321289,0.583496094 C103.40332,0.55387342 103.503581,0.5390625 103.62207,0.5390625 C103.74056,0.5390625 103.84082,0.55387342 103.922852,0.583496094 C104.004883,0.613118768 104.075521,0.657552361 104.134766,0.716796875 C104.162109,0.744140625 104.186035,0.771484375 104.206543,0.798828125 C104.227051,0.826171875 104.247559,0.856933594 104.268066,0.891113281 C104.288574,0.925292969 104.307943,0.962890625 104.326172,1.00390625 C104.344401,1.04492188 104.36263,1.09049451 104.380859,1.140625 L107.292969,9.1796875 C107.343099,9.31184903 107.373861,9.40299483 107.385254,9.453125 C107.396647,9.50325528 107.402344,9.54654951 107.402344,9.58300781 C107.402344,9.66048184 107.384115,9.72884122 107.347656,9.78808594 C107.311198,9.84733076 107.265625,9.89746094 107.210938,9.93847656 C107.15625,9.97949219 107.094727,10.0102539 107.026367,10.0307617 C106.958008,10.0512695 106.889648,10.0615234 106.821289,10.0615234 C106.757487,10.0615234 106.698242,10.0512695 106.643555,10.0307617 C106.588867,10.0102539 106.543295,9.9817708 106.506836,9.9453125 C106.470377,9.9088542 106.438476,9.85986328 106.411133,9.79833984 C106.383789,9.73681641 106.345052,9.63769531 106.294922,9.50097656 L105.549805,7.38867188 L101.65332,7.38867188 L100.942383,9.48046875 Z M105.249023,6.52050781 L104.039062,3.06835938 L103.861328,2.53515625 L103.717773,2.09765625 C103.667643,1.95182264 103.624349,1.81738281 103.587891,1.69433594 L103.560547,1.69433594 L103.4375,2.10449219 C103.401042,2.23209608 103.355469,2.37792969 103.300781,2.54199219 L103.123047,3.06835938 L101.947266,6.52050781 L105.249023,6.52050781 Z M111.981445,0.997070312 L111.981445,6.30175781 C111.981445,6.94433594 112.060059,7.50488281 112.217285,7.98339844 C112.374512,8.46191406 112.602376,8.8595378 112.900879,9.17626953 C113.199381,9.49300127 113.565104,9.72998047 113.998047,9.88720703 C114.430989,10.0444336 114.923177,10.1230469 115.474609,10.1230469 C116.016927,10.1230469 116.509114,10.042155 116.951172,9.88037109 C117.393229,9.7185872 117.771484,9.47249345 118.085938,9.14208984 C118.400391,8.81168623 118.643066,8.39697266 118.813965,7.89794922 C118.984863,7.39892578 119.070312,6.81217441 119.070312,6.13769531 L119.070312,0.997070312 C119.070312,0.851236701 119.027018,0.738443732 118.94043,0.658691406 C118.853841,0.57893908 118.723959,0.5390625 118.550781,0.5390625 C118.377604,0.5390625 118.247721,0.57893908 118.161133,0.658691406 C118.074545,0.738443732 118.03125,0.851236701 118.03125,0.997070312 L118.03125,6.30175781 C118.03125,6.80761719 117.969727,7.24397793 117.84668,7.61083984 C117.723633,7.97770175 117.552734,8.28076172 117.333984,8.52001953 C117.115234,8.75927734 116.855469,8.93701172 116.554688,9.05322266 C116.253906,9.16943359 115.925781,9.22753906 115.570312,9.22753906 C115.192057,9.22753906 114.846843,9.16829434 114.534668,9.04980469 C114.222493,8.93131503 113.954753,8.74788408 113.731445,8.49951172 C113.508138,8.25113936 113.333822,7.93212891 113.208496,7.54248047 C113.083171,7.15283203 113.020508,6.68457031 113.020508,6.13769531 L113.020508,0.997070312 C113.020508,0.851236701 112.977213,0.738443732 112.890625,0.658691406 C112.804037,0.57893908 112.674154,0.5390625 112.500977,0.5390625 C112.3278,0.5390625 112.197917,0.57893908 112.111328,0.658691406 C112.02474,0.738443732 111.981445,0.851236701 111.981445,0.997070312 Z M130.921875,5.56347656 C130.921875,6.26529962 131.025553,6.89648438 131.23291,7.45703125 C131.440267,8.01757812 131.728516,8.49495439 132.097656,8.88916016 C132.466797,9.28336592 132.908854,9.58528653 133.423828,9.79492188 C133.938802,10.0045573 134.503906,10.109375 135.119141,10.109375 C135.433594,10.109375 135.724121,10.0865886 135.990723,10.0410156 C136.257324,9.99544267 136.493164,9.9373372 136.698242,9.86669922 C136.90332,9.79606123 137.077637,9.71972656 137.221191,9.63769531 C137.364746,9.55566406 137.472982,9.47819003 137.545898,9.40527344 C137.605144,9.34602872 137.647298,9.2890625 137.672363,9.234375 C137.697428,9.1796875 137.709961,9.11816406 137.709961,9.04980469 C137.709961,8.99967451 137.700846,8.95182295 137.682617,8.90625 C137.664388,8.86067705 137.640463,8.82080078 137.61084,8.78662109 C137.581217,8.75244141 137.54362,8.72623701 137.498047,8.70800781 C137.452474,8.68977861 137.402344,8.68066406 137.347656,8.68066406 C137.261068,8.68066406 137.165365,8.70800781 137.060547,8.76269531 C136.955729,8.81738281 136.825846,8.87662764 136.670898,8.94042969 C136.51595,9.00423174 136.327962,9.06347656 136.106934,9.11816406 C135.885905,9.17285156 135.618164,9.20019531 135.303711,9.20019531 C134.820638,9.20019531 134.376302,9.11588545 133.970703,8.94726562 C133.565104,8.7786458 133.215332,8.53255205 132.921387,8.20898438 C132.627441,7.88541681 132.398438,7.49007168 132.234375,7.02294922 C132.070312,6.55582675 131.988281,6.02148438 131.988281,5.41992188 C131.988281,4.75911444 132.071452,4.17578125 132.237793,3.66992188 C132.404134,3.1640625 132.631999,2.74023438 132.921387,2.3984375 C133.210775,2.05664062 133.550293,1.79801404 133.939941,1.62255859 C134.32959,1.44710314 134.75,1.359375 135.201172,1.359375 C135.538412,1.359375 135.817546,1.38785779 136.038574,1.44482422 C136.259603,1.50179064 136.445312,1.56445312 136.595703,1.6328125 C136.746094,1.70117188 136.871419,1.76383436 136.97168,1.82080078 C137.07194,1.87776721 137.167643,1.90625 137.258789,1.90625 C137.322591,1.90625 137.380697,1.89599609 137.433105,1.87548828 C137.485514,1.85498047 137.529948,1.82763672 137.566406,1.79345703 C137.602865,1.75927734 137.631348,1.71712267 137.651855,1.66699219 C137.672363,1.6168617 137.682617,1.5621742 137.682617,1.50292969 C137.682617,1.42545545 137.670084,1.35709608 137.64502,1.29785156 C137.619955,1.23860705 137.575521,1.17708361 137.511719,1.11328125 C137.457031,1.05859375 137.369303,0.993652344 137.248535,0.918457031 C137.127767,0.843261719 136.976237,0.771484375 136.793945,0.703125 C136.611654,0.634765625 136.402018,0.577799201 136.165039,0.532226562 C135.92806,0.486653924 135.663737,0.463867188 135.37207,0.463867188 C134.724935,0.463867188 134.129069,0.577799201 133.584473,0.805664062 C133.039876,1.03352892 132.570475,1.36507189 132.17627,1.80029297 C131.782064,2.23551488 131.474447,2.76985705 131.253418,3.40332031 C131.032389,4.03678399 130.921875,4.75683594 130.921875,5.56347656 Z M147.436523,9.11132812 L143.758789,9.11132812 L143.758789,0.997070312 C143.758789,0.851236701 143.715495,0.738443732 143.628906,0.658691406 C143.542318,0.57893908 143.412435,0.5390625 143.239258,0.5390625 C143.066081,0.5390625 142.936198,0.57893908 142.849609,0.658691406 C142.763021,0.738443732 142.719727,0.851236701 142.719727,0.997070312 L142.719727,9.48046875 C142.719727,9.64908847 142.76416,9.77783203 142.853027,9.86669922 C142.941895,9.95556641 143.070638,10 143.239258,10 L147.436523,10 C147.568685,10 147.671224,9.96240234 147.744141,9.88720703 C147.817057,9.81201172 147.853516,9.70149747 147.853516,9.55566406 C147.853516,9.40983066 147.817057,9.29931641 147.744141,9.22412109 C147.671224,9.14892578 147.568685,9.11132812 147.436523,9.11132812 Z M152.555664,9.48046875 C152.505534,9.62174472 152.465658,9.72542325 152.436035,9.79150391 C152.406413,9.85758467 152.371094,9.91113281 152.330078,9.95214844 C152.298177,9.98404951 152.254883,10.0102539 152.200195,10.0307617 C152.145508,10.0512695 152.083984,10.0615234 152.015625,10.0615234 C151.951823,10.0615234 151.888021,10.0512695 151.824219,10.0307617 C151.760417,10.0102539 151.702311,9.98063155 151.649902,9.94189453 C151.597494,9.90315752 151.554199,9.85530595 151.52002,9.79833984 C151.48584,9.74137373 151.46875,9.67643233 151.46875,9.60351562 C151.46875,9.55794278 151.474447,9.51009122 151.48584,9.45996094 C151.497233,9.40983066 151.527995,9.31868486 151.578125,9.18652344 L154.476562,1.140625 C154.494792,1.09049451 154.513021,1.04492188 154.53125,1.00390625 C154.549479,0.962890625 154.568848,0.925292969 154.589355,0.891113281 C154.609863,0.856933594 154.630371,0.826171875 154.650879,0.798828125 C154.671387,0.771484375 154.695312,0.744140625 154.722656,0.716796875 C154.781901,0.657552361 154.852539,0.613118768 154.93457,0.583496094 C155.016602,0.55387342 155.116862,0.5390625 155.235352,0.5390625 C155.353841,0.5390625 155.454102,0.55387342 155.536133,0.583496094 C155.618164,0.613118768 155.688802,0.657552361 155.748047,0.716796875 C155.775391,0.744140625 155.799316,0.771484375 155.819824,0.798828125 C155.840332,0.826171875 155.86084,0.856933594 155.881348,0.891113281 C155.901855,0.925292969 155.921224,0.962890625 155.939453,1.00390625 C155.957682,1.04492188 155.975912,1.09049451 155.994141,1.140625 L158.90625,9.1796875 C158.95638,9.31184903 158.987142,9.40299483 158.998535,9.453125 C159.009928,9.50325528 159.015625,9.54654951 159.015625,9.58300781 C159.015625,9.66048184 158.997396,9.72884122 158.960938,9.78808594 C158.924479,9.84733076 158.878906,9.89746094 158.824219,9.93847656 C158.769531,9.97949219 158.708008,10.0102539 158.639648,10.0307617 C158.571289,10.0512695 158.50293,10.0615234 158.43457,10.0615234 C158.370768,10.0615234 158.311523,10.0512695 158.256836,10.0307617 C158.202148,10.0102539 158.156576,9.9817708 158.120117,9.9453125 C158.083659,9.9088542 158.051757,9.85986328 158.024414,9.79833984 C157.99707,9.73681641 157.958333,9.63769531 157.908203,9.50097656 L157.163086,7.38867188 L153.266602,7.38867188 L152.555664,9.48046875 Z M156.862305,6.52050781 L155.652344,3.06835938 L155.474609,2.53515625 L155.331055,2.09765625 C155.280925,1.95182264 155.23763,1.81738281 155.201172,1.69433594 L155.173828,1.69433594 L155.050781,2.10449219 C155.014323,2.23209608 154.96875,2.37792969 154.914062,2.54199219 L154.736328,3.06835938 L153.560547,6.52050781 L156.862305,6.52050781 Z M163.820312,0.997070312 L163.820312,9.58300781 C163.820312,9.72884122 163.863607,9.84163408 163.950195,9.92138672 C164.036784,10.0011394 164.166667,10.0410156 164.339844,10.0410156 C164.513021,10.0410156 164.642904,10.0011394 164.729492,9.92138672 C164.816081,9.84163418 164.859375,9.72884122 164.859375,9.58300781 L164.859375,0.997070312 C164.859375,0.851236701 164.816081,0.738443732 164.729492,0.658691406 C164.642904,0.57893908 164.513021,0.5390625 164.339844,0.5390625 C164.166667,0.5390625 164.036784,0.57893908 163.950195,0.658691406 C163.863607,0.738443732 163.820312,0.851236701 163.820312,0.997070312 Z M171.6875,9.58300781 C171.6875,9.72884122 171.644206,9.84163418 171.557617,9.92138672 C171.471029,10.0011394 171.341146,10.0410156 171.167969,10.0410156 C170.994792,10.0410156 170.864909,10.0011394 170.77832,9.92138672 C170.691732,9.84163408 170.648438,9.72884122 170.648438,9.58300781 L170.648438,1.09277344 C170.648438,0.928710938 170.692871,0.802246094 170.781738,0.713378906 C170.870605,0.624511719 170.999349,0.580078125 171.167969,0.580078125 L173.027344,0.580078125 C173.601562,0.580078125 174.097168,0.640462518 174.51416,0.761230469 C174.931152,0.88199842 175.275228,1.05175781 175.546387,1.27050781 C175.817546,1.48925781 176.018066,1.75016248 176.147949,2.05322266 C176.277832,2.35628283 176.342773,2.69010472 176.342773,3.0546875 C176.342773,3.40559882 176.284668,3.72916639 176.168457,4.02539062 C176.052246,4.32161444 175.890462,4.58365858 175.683105,4.81152344 C175.475749,5.03938788 175.225098,5.22851562 174.931152,5.37890625 C174.637207,5.52929688 174.3125,5.63411444 173.957031,5.69335938 L176.28125,9.15234375 C176.322266,9.2161459 176.359863,9.27766934 176.394043,9.33691406 C176.428223,9.39615878 176.445312,9.46223955 176.445312,9.53515625 C176.445312,9.60807295 176.428223,9.67643233 176.394043,9.74023438 C176.359863,9.80403642 176.314291,9.85986328 176.257324,9.90771484 C176.200358,9.95556641 176.136556,9.99316406 176.065918,10.0205078 C175.99528,10.0478516 175.925781,10.0615234 175.857422,10.0615234 C175.779948,10.0615234 175.715007,10.0478516 175.662598,10.0205078 C175.610189,9.99316406 175.565755,9.96126299 175.529297,9.92480469 C175.515625,9.91113281 175.503093,9.89746094 175.491699,9.88378906 L175.454102,9.83935547 C175.44043,9.82340498 175.424479,9.80175781 175.40625,9.77441406 C175.388021,9.74707031 175.365234,9.71061201 175.337891,9.66503906 L172.822266,5.82324219 L171.6875,5.82324219 L171.6875,9.58300781 Z M172.945312,4.94140625 C173.346354,4.94140625 173.692709,4.89811212 173.984375,4.81152344 C174.276042,4.72493476 174.517578,4.60416639 174.708984,4.44921875 C174.900391,4.29427069 175.041667,4.10742188 175.132812,3.88867188 C175.223958,3.66992188 175.269531,3.43066406 175.269531,3.17089844 C175.269531,2.91113281 175.226237,2.67529297 175.139648,2.46337891 C175.05306,2.25146484 174.91748,2.07259142 174.73291,1.92675781 C174.54834,1.7809242 174.307943,1.66813123 174.011719,1.58837891 C173.715495,1.50862658 173.360026,1.46875 172.945312,1.46875 L171.6875,1.46875 L171.6875,4.94140625 L172.945312,4.94140625 Z" id="BURBANK-EAU-CLAIR"></path>
        </g>
    </g>
</svg>