<?xml version="1.0" encoding="UTF-8"?>
<svg width="41px" height="38px" viewBox="0 0 41 38" version="1.1" xmlns="http://www.w3.org/2000/svg" xmlns:xlink="http://www.w3.org/1999/xlink">
    <!-- Generator: Sketch 43.2 (39069) - http://www.bohemiancoding.com/sketch -->
    <title>Artboard</title>
    <desc>Created with Sketch.</desc>
    <defs></defs>
    <g id="Page-1" stroke="none" stroke-width="1" fill="none" fill-rule="evenodd">
        <g id="Artboard" fill="#868686">
            <path d="M0.1,0.1 L5.63745928,0.1 C8.63420195,0.1 10.328013,1.85895765 10.328013,4.24766558 C10.328013,5.83289902 9.37252986,7.11411509 8.09131379,7.54842562 C9.58968512,7.91758958 10.8057546,9.28566775 10.8057546,11.1966341 C10.8057546,13.6939197 8.93821933,15.4963084 6.05005429,15.4963084 L0.1,15.4963084 L0.1,0.1 Z M3.05331162,6.46264929 L5.18143322,6.46264929 C6.5495114,6.46264929 7.37470141,5.70260586 7.37470141,4.52996743 C7.37470141,3.35732899 6.61465798,2.61900109 5.1597177,2.61900109 L3.05331162,2.61900109 L3.05331162,6.46264929 Z M3.05331162,12.9990228 L5.4854506,12.9990228 C6.94039088,12.9990228 7.80901194,12.2389794 7.80901194,11.0011944 C7.80901194,9.78512486 7.02725299,8.93821933 5.52888165,8.93821933 L3.05331162,8.93821933 L3.05331162,12.9990228 Z M19.1010858,15.8437568 C22.4018458,15.8437568 25.0294245,13.8242128 25.0294245,10.0457112 L25.0294245,0.1 L22.0326819,0.1 L22.0326819,9.82855592 C22.0326819,11.8480999 20.92519,12.9121607 19.1010858,12.9121607 C17.3204126,12.9121607 16.1912052,11.8480999 16.1912052,9.82855592 L16.1912052,0.1 L13.1944625,0.1 L13.1944625,10.0457112 C13.1944625,13.8242128 15.8220413,15.8437568 19.1010858,15.8437568 Z M35.9957655,15.4963084 L32.9773073,9.5679696 L31.4137894,9.5679696 L31.4137894,15.4963084 L28.3953312,15.4963084 L28.3953312,0.1 L34.410532,0.1 C37.4072747,0.1 39.318241,2.16297503 39.318241,4.8339848 C39.318241,6.98382193 38.0587405,8.61248643 36.0391965,9.19880565 L39.3399566,15.4963084 L35.9957655,15.4963084 Z M31.4137894,6.98382193 L33.8459283,6.98382193 C35.3660152,6.98382193 36.2563518,6.11520087 36.2563518,4.85570033 C36.2563518,3.55276873 35.3660152,2.70586319 33.8459283,2.70586319 L31.4137894,2.70586319 L31.4137894,6.98382193 Z M9.74169381,37.211835 L9.74169381,34.3888165 L3.09674267,34.3888165 L3.09674267,30.8274701 L9.11194354,30.8274701 L9.11194354,28.1564604 L3.09674267,28.1564604 L3.09674267,24.6385451 L9.74169381,24.6385451 L9.74169381,21.8155266 L0.1,21.8155266 L0.1,37.211835 L9.74169381,37.211835 Z M23.1836048,37.211835 L21.9023887,33.6939197 L15.648317,33.6939197 L14.367101,37.211835 L11.1966341,37.211835 L17.1032573,21.8155266 L20.5777416,21.8155266 L26.4409338,37.211835 L23.1836048,37.211835 Z M18.7753529,25.1380022 L16.6472313,30.9577633 L20.9034745,30.9577633 L18.7753529,25.1380022 Z M34.1716612,37.5592834 C37.4724213,37.5592834 40.1,35.5397394 40.1,31.7612378 L40.1,21.8155266 L37.1032573,21.8155266 L37.1032573,31.5440825 C37.1032573,33.5636265 35.9957655,34.6276873 34.1716612,34.6276873 C32.3909881,34.6276873 31.2617807,33.5636265 31.2617807,31.5440825 L31.2617807,21.8155266 L28.265038,21.8155266 L28.265038,31.7612378 C28.265038,35.5397394 30.8926167,37.5592834 34.1716612,37.5592834 Z" id="BUR-EAU"></path>
        </g>
    </g>
</svg>